<?xml version="1.0"?><svg width="640" height="480" xmlns="http://www.w3.org/2000/svg">
 <metadata id="metadata3953">image/svg+xml</metadata>
 <defs>
  <linearGradient y2="0.902344" x2="0.933594" y1="0.59375" x1="0.578125" id="svg_4">
   <stop stop-color="#3f7f00" offset="0"/>
   <stop stop-color="#68c405" offset="1"/>
  </linearGradient>
  <linearGradient y2="0.777344" x2="0.867188" y1="0.476563" x1="0.636719" id="svg_6">
   <stop stop-color="#488e02" offset="0"/>
   <stop stop-color="#66c904" offset="1"/>
  </linearGradient>
  <linearGradient y2="0.902344" x2="0.519531" y1="0.644531" x1="0.757813" id="svg_7">
   <stop stop-color="#4c9603" offset="0"/>
   <stop stop-color="#67cc02" offset="1"/>
  </linearGradient>
 </defs>
 <g>
  <title>Layer 1</title>
  <g id="g3354" fill="#00892c"/>
  <g id="svg_8">
   <path stroke="#488e01" d="m98.782478,79.285439c-24.198418,32.269234 -44.766151,68.965034 -46.610527,108.411598c-0.952377,11.954453 -0.457954,23.778885 0.905823,35.501373c1.218781,0.206894 2.444962,0.39624 3.677536,0.549332c-4.421761,-32.951416 -1.624123,-67.163803 14.094284,-98.158661c7.728043,-16.176811 17.65564,-31.384315 27.932884,-46.303642z" id="path3249" fill-rule="evenodd" fill="url(#svg_7)"/>
   <g id="g3374" fill="#00892c">
    <path stroke="#488e01" d="m100.782478,79.285431c-24.19841,32.269249 -44.766159,68.965027 -46.610519,108.411621c-0.9524,11.954407 -0.457947,23.77887 0.905807,35.501343c1.218788,0.206909 2.444962,0.396271 3.677544,0.549332c-4.421776,-32.951431 -1.62413,-67.163803 14.094269,-98.158669c7.728065,-16.176788 17.655647,-31.384315 27.932899,-46.303627z" id="path3378" fill-rule="evenodd" fill="url(#svg_7)"/>
   </g>
   <path id="path2976" d="m549.302856,333.953552c-0.309998,-0.004944 -0.811035,0.384033 -1.468018,1.188049c-0.750977,0.917969 -1.705017,2.378967 -2.75,4.343994c-1.046021,1.963989 -2.174988,4.437988 -3.25,7.437012c-1.075989,2.998962 -2.089966,6.529968 -2.875,10.5c-0.719971,3.640991 -1.234009,7.649963 -1.5,11.968994c-0.266968,4.31897 -0.271973,8.948975 0.031006,13.781006c0.450989,7.134949 1.492981,14.719971 3.125,22.562988c1.632019,7.842957 3.848022,15.937012 6.375,24.125c0.515015,1.669006 1.036987,3.300964 1.562012,4.937012c0.205994,0.643982 0.417969,1.266968 0.625,1.905945l10.437988,0c-0.526001,-1.640991 -1.039978,-3.241943 -1.562988,-4.905945c-0.505005,-1.618042 -0.997009,-3.236023 -1.5,-4.875c-2.467041,-8.038025 -4.692993,-15.858032 -6.468018,-23.312012c-1.775024,-7.455017 -3.088013,-14.545044 -3.875,-21.218994c-0.534973,-4.506042 -0.852966,-8.822998 -0.937988,-12.843994c-0.085022,-4.021057 0.059998,-7.755005 0.343994,-11.187012c0.614014,-7.470032 1.945984,-13.450012 2.906006,-17.593994c0.47998,-2.072021 0.848999,-3.699036 1.031006,-4.843994c0.182983,-1.14502 0.166016,-1.798035 -0.125,-1.937012c-0.036011,-0.018005 -0.080017,-0.031006 -0.125,-0.032043l0,0z" fill-rule="evenodd" fill="url(#svg_4)"/>
   <path id="path2982" d="m577.032593,356.496948c-0.739441,0 -1.433228,2.077454 -2.109924,5.760376c-0.676636,3.682922 -1.350464,8.986267 -2.009399,15.573059c-0.658936,6.586792 -1.2854,14.441345 -1.775024,23.208923c-0.489624,8.767639 -0.828491,18.453491 -0.636292,28.667908c0.005981,0.339294 0.025879,0.666382 0.033386,1.0047c0.0354,1.762573 0.097839,3.521301 0.16748,5.257996l10.71698,0c-0.056396,-1.815674 -0.125061,-3.64093 -0.16748,-5.492432c-0.007019,-0.329651 -0.0271,-0.640442 -0.033386,-0.971252c-0.192627,-9.958191 -0.181824,-19.514221 -0.234436,-28.232483c-0.052612,-8.718262 -0.158447,-16.599365 -0.468872,-23.242432c-0.310486,-6.642944 -0.801514,-12.02179 -1.406616,-15.740479c-0.605103,-3.718689 -1.336914,-5.793884 -2.076416,-5.793884z" fill-rule="evenodd" fill="url(#svg_4)"/>
   <path id="path2984" d="m586.865662,364.766479c-0.657166,0.203613 -0.605957,2.432312 -0.15625,6.28125c0.449768,3.848999 1.302002,9.326782 2.1875,16.09375c0.885498,6.766907 1.780884,14.838806 2.5,23.84375c0.633545,7.933716 1.111084,16.617554 1.46875,25.71875l10,0c-0.411377,-9.438477 -1.184998,-18.48291 -2.3125,-26.71875c-1.260803,-9.209717 -2.936218,-17.429993 -4.75,-24.21875c-1.813721,-6.788696 -3.758789,-12.148743 -5.375,-15.75c-1.61615,-3.601196 -2.905334,-5.453613 -3.5625,-5.25z" fill-rule="evenodd" fill="url(#svg_4)"/>
   <path d="m549.302856,333.953552c-0.309998,-0.004944 -0.811035,0.384033 -1.468018,1.188049c-0.750977,0.917969 -1.705017,2.378967 -2.75,4.343994c-1.046021,1.963989 -2.174988,4.437988 -3.25,7.437012c-1.075989,2.998962 -2.089966,6.529968 -2.875,10.5c-0.719971,3.640991 -1.234009,7.649963 -1.5,11.968994c-0.266968,4.31897 -0.271973,8.948975 0.031006,13.781006c0.450989,7.134949 1.492981,14.719971 3.125,22.562988c1.632019,7.842957 3.848022,15.937012 6.375,24.125c0.515015,1.669006 1.036987,3.300964 1.562012,4.937012c0.205994,0.643982 0.417969,1.266968 0.625,1.905945l10.437988,0c-0.526001,-1.640991 -1.039978,-3.241943 -1.562988,-4.905945c-0.505005,-1.618042 -0.997009,-3.236023 -1.5,-4.875c-2.467041,-8.038025 -4.692993,-15.858032 -6.468018,-23.312012c-1.775024,-7.455017 -3.088013,-14.545044 -3.875,-21.218994c-0.534973,-4.506042 -0.852966,-8.822998 -0.937988,-12.843994c-0.085022,-4.021057 0.059998,-7.755005 0.343994,-11.187012c0.614014,-7.470032 1.945984,-13.450012 2.906006,-17.593994c0.47998,-2.072021 0.848999,-3.699036 1.031006,-4.843994c0.182983,-1.14502 0.166016,-1.798035 -0.125,-1.937012c-0.036011,-0.018005 -0.080017,-0.031006 -0.125,-0.032043l0,0z" id="path2996" fill-rule="evenodd" fill="url(#svg_4)"/>
   <path d="m577.032593,356.496948c-0.739441,0 -1.433228,2.077454 -2.109924,5.760376c-0.676636,3.682922 -1.350464,8.986267 -2.009399,15.573059c-0.658936,6.586792 -1.2854,14.441345 -1.775024,23.208923c-0.489624,8.767639 -0.828491,18.453491 -0.636292,28.667908c0.005981,0.339294 0.025879,0.666382 0.033386,1.0047c0.0354,1.762573 0.097839,3.521301 0.16748,5.257996l10.71698,0c-0.056396,-1.815674 -0.125061,-3.64093 -0.16748,-5.492432c-0.007019,-0.329651 -0.0271,-0.640442 -0.033386,-0.971252c-0.192627,-9.958191 -0.181824,-19.514221 -0.234436,-28.232483c-0.052612,-8.718262 -0.158447,-16.599365 -0.468872,-23.242432c-0.310486,-6.642944 -0.801514,-12.02179 -1.406616,-15.740479c-0.605103,-3.718689 -1.336914,-5.793884 -2.076416,-5.793884z" id="path3002" fill-rule="evenodd" fill="url(#svg_4)"/>
   <path d="m586.865662,364.766479c-0.657166,0.203613 -0.605957,2.432312 -0.15625,6.28125c0.449768,3.848999 1.302002,9.326782 2.1875,16.09375c0.885498,6.766907 1.780884,14.838806 2.5,23.84375c0.633545,7.933716 1.111084,16.617554 1.46875,25.71875l10,0c-0.411377,-9.438477 -1.184998,-18.48291 -2.3125,-26.71875c-1.260803,-9.209717 -2.936218,-17.429993 -4.75,-24.21875c-1.813721,-6.788696 -3.758789,-12.148743 -5.375,-15.75c-1.61615,-3.601196 -2.905334,-5.453613 -3.5625,-5.25z" id="path3004" fill-rule="evenodd" fill="url(#svg_4)"/>
   <path id="path3016" d="m563.858826,321.18457c-0.317993,-0.005005 -0.833008,0.393982 -1.507996,1.218994c-0.770996,0.942993 -1.750977,2.442993 -2.823975,4.460999c-1.072998,2.018005 -2.233032,4.558044 -3.338013,7.638c-1.10498,3.080017 -2.14502,6.705994 -2.952026,10.78302c-0.738953,3.739014 -1.266968,7.856018 -1.540955,12.291016c-0.273987,4.435974 -0.278992,9.190002 0.031982,14.152954c0.463989,7.327026 1.53302,15.116028 3.210022,23.171021c1.675964,8.054016 3.951965,16.366028 6.545959,24.775024c0.528992,1.714966 1.065002,3.390991 1.605042,5.070984c0.211975,0.661011 0.428955,1.301025 0.641968,1.95697l10.718994,0c-0.539978,-1.684998 -1.067993,-3.329956 -1.60498,-5.037964c-0.518982,-1.661987 -1.023987,-3.322998 -1.539978,-5.007019c-2.533997,-8.253967 -4.821045,-16.284973 -6.643005,-23.940979c-1.822998,-7.655029 -3.171021,-14.936035 -3.980042,-21.790039c-0.54895,-4.627991 -0.875,-9.060974 -0.962952,-13.190002c-0.087036,-4.129944 0.061951,-7.963989 0.352966,-11.488953c0.630981,-7.671021 1.999023,-13.812988 2.984985,-18.067993c0.493042,-2.128052 0.872009,-3.799011 1.059021,-4.975037c0.187012,-1.174988 0.171021,-1.846008 -0.127991,-1.989014c-0.038025,-0.017944 -0.083008,-0.031982 -0.129028,-0.031982l0,0z" fill-rule="evenodd" fill="url(#svg_4)"/>
   <path id="path3018" d="m511.942505,321.914673c-0.116272,-0.023193 -0.272339,0.020874 -0.384521,0.192261c-0.112244,0.171326 -0.164978,0.501221 -0.192322,0.730652c-0.057556,0.405579 -0.062683,0.932007 0,1.538208c0.12384,1.198242 0.483337,2.808655 0.999817,4.729919c1.027771,3.818787 2.761108,9.066406 4.845337,15.458801c4.114502,12.614075 9.700562,29.940247 14.036011,50.375793c2.105347,9.933838 3.865051,20.616577 5.075989,31.763611l12.420898,0c-1.317566,-12.178528 -3.536743,-23.781433 -6.229675,-34.416992c-2.664124,-10.530579 -5.794312,-20.125061 -8.998413,-28.610352c-3.204102,-8.485291 -6.470154,-15.853455 -9.4599,-21.91925c-3.040466,-6.170959 -5.755249,-10.953247 -7.844727,-14.305176c-1.059875,-1.704956 -1.929688,-3.000671 -2.614929,-3.922363c-0.35022,-0.475891 -0.64447,-0.81604 -0.88446,-1.076782c-0.155823,-0.239807 -0.340393,-0.273438 -0.461487,-0.346069c-0.121094,-0.072571 -0.191467,-0.169006 -0.307617,-0.192261z" fill-rule="evenodd" fill="url(#svg_4)"/>
   <path id="path3022" d="m592.336182,344.334839c-0.759399,0 -1.471863,2.133484 -2.166748,5.915649c-0.694946,3.782166 -1.386902,9.228516 -2.063599,15.99292c-0.676758,6.764343 -1.320068,14.830566 -1.822876,23.834534c-0.502808,9.003967 -0.85083,18.950928 -0.653442,29.440674c0.005981,0.34845 0.02655,0.684326 0.034302,1.031799c0.036377,1.81012 0.100403,3.616211 0.171936,5.399719l11.005859,0c-0.057861,-1.864624 -0.128418,-3.739075 -0.171936,-5.640503c-0.007019,-0.338501 -0.027832,-0.657654 -0.034302,-0.997375c-0.197815,-10.226685 -0.186768,-20.040283 -0.240784,-28.993591c-0.054016,-8.953247 -0.162659,-17.046814 -0.481506,-23.868958c-0.318787,-6.822021 -0.823059,-12.345886 -1.444519,-16.164795c-0.62146,-3.81897 -1.372986,-5.950073 -2.132385,-5.950073z" fill-rule="evenodd" fill="url(#svg_4)"/>
   <path id="path3024" d="m602.434326,352.827271c-0.674866,0.209106 -0.622314,2.497864 -0.160461,6.450562c0.461853,3.952759 1.337097,9.578247 2.24646,16.527588c0.909363,6.949341 1.828918,15.238831 2.567383,24.486511c0.650635,8.147583 1.141052,17.065491 1.508362,26.412048l10.269592,0c-0.422485,-9.692932 -1.21698,-18.98114 -2.374878,-27.439026c-1.2948,-9.457947 -3.015381,-17.899841 -4.878052,-24.871582c-1.86261,-6.971741 -3.860107,-12.476257 -5.519897,-16.174561c-1.659729,-3.698303 -2.983643,-5.600647 -3.658508,-5.391541z" fill-rule="evenodd" fill="url(#svg_4)"/>
   <path d="m549.789856,338.748596c-0.273987,-0.004028 -0.718018,0.338989 -1.299988,1.050964c-0.665039,0.812988 -1.509033,2.106018 -2.434021,3.845032c-0.924988,1.739014 -1.924988,3.929016 -2.877014,6.583984c-0.953003,2.653992 -1.849976,5.780029 -2.544983,9.294006c-0.637024,3.223022 -1.09198,6.771973 -1.328003,10.594971c-0.236023,3.824036 -0.241028,7.921997 0.026978,12.200012c0.400024,6.315002 1.322021,13.030029 2.767029,19.971985c1.445007,6.943054 3.406982,14.108032 5.643005,21.356018c0.455994,1.478027 0.917969,2.923035 1.382996,4.371033c0.182007,0.570007 0.369995,1.121948 0.552979,1.686951l9.23999,0c-0.466003,-1.451965 -0.920959,-2.869995 -1.382996,-4.342957c-0.447998,-1.432007 -0.882996,-2.864014 -1.328003,-4.315002c-2.18396,-7.11499 -4.154968,-14.038025 -5.725952,-20.637024c-1.572021,-6.597961 -2.734009,-12.875 -3.43103,-18.78302c-0.473022,-3.988953 -0.753967,-7.809998 -0.828979,-11.368958c-0.075989,-3.559998 0.052002,-6.86499 0.303955,-9.903992c0.544006,-6.612 1.723022,-11.906006 2.572021,-15.574036c0.424988,-1.833984 0.752014,-3.273987 0.913025,-4.287964c0.161987,-1.013 0.146973,-1.591003 -0.110046,-1.715027c-0.031982,-0.015015 -0.07196,-0.026978 -0.110962,-0.026978l0,0z" id="path3036" fill-rule="evenodd" fill="url(#svg_4)"/>
   <path d="m574.336487,358.703491c-0.654602,0 -1.268738,1.838989 -1.867737,5.099182c-0.598999,3.260132 -1.195435,7.954773 -1.778748,13.785522c-0.583313,5.83075 -1.137817,12.783691 -1.571228,20.544922c-0.433472,7.761169 -0.733459,16.335266 -0.563293,25.377197c0.004944,0.300354 0.022888,0.589905 0.029602,0.889404c0.031372,1.560303 0.086548,3.117126 0.148193,4.65448l9.486816,0c-0.049866,-1.6073 -0.110657,-3.223022 -0.148193,-4.862c-0.006042,-0.291809 -0.024048,-0.566956 -0.029602,-0.859741c-0.170532,-8.815186 -0.16095,-17.274292 -0.207581,-24.991821c-0.04657,-7.71759 -0.140198,-14.694092 -0.415039,-20.574585c-0.27478,-5.880493 -0.709473,-10.641907 -1.245117,-13.933716c-0.535706,-3.29187 -1.183472,-5.128845 -1.838074,-5.128845z" id="path3042" fill-rule="evenodd" fill="url(#svg_4)"/>
   <path d="m583.040894,366.023804c-0.581726,0.180237 -0.536438,2.153137 -0.138306,5.560242c0.398132,3.407166 1.152527,8.256287 1.936401,14.24646c0.783875,5.990173 1.576477,13.135498 2.213013,21.106873c0.560852,7.02301 0.983582,14.710083 1.300171,22.766602l8.852173,0c-0.364136,-8.355103 -1.049011,-16.361328 -2.047058,-23.651855c-1.116089,-8.152527 -2.599243,-15.429321 -4.204773,-21.438782c-1.605591,-6.00946 -3.327393,-10.754272 -4.758057,-13.942139c-1.430664,-3.187866 -2.571838,-4.827637 -3.153564,-4.6474z" id="path3044" fill-rule="evenodd" fill="url(#svg_4)"/>
   <path id="path3050" d="m573.826782,344.377808c0.10022,-0.02002 0.234741,0.018005 0.331482,0.165771c0.09668,0.147644 0.142212,0.432007 0.16571,0.629761c0.049622,0.349609 0.054016,0.803345 0,1.325867c-0.106689,1.032898 -0.416565,2.421082 -0.861816,4.077148c-0.885864,3.291687 -2.380005,7.815002 -4.176514,13.325134c-3.546631,10.873047 -8.361755,25.807861 -12.098755,43.422913c-1.814758,8.562744 -3.331665,17.771057 -4.375427,27.379578l-10.706543,0c1.135681,-10.497681 3.048584,-20.499084 5.369812,-29.666748c2.296448,-9.077148 4.994568,-17.347412 7.75647,-24.66156c2.761841,-7.314087 5.577148,-13.665344 8.154236,-18.893921c2.62085,-5.319214 4.960938,-9.441467 6.762024,-12.33075c0.913574,-1.469666 1.66333,-2.586487 2.254028,-3.381042c0.301819,-0.410156 0.555481,-0.703369 0.762329,-0.928101c0.134338,-0.206726 0.293396,-0.235718 0.397766,-0.298279c0.10437,-0.062622 0.1651,-0.145691 0.265198,-0.165771z" fill-rule="evenodd" fill="url(#svg_4)"/>
   <path id="path3052" d="m619.281433,356.922668c0.562622,0.189392 0.367004,2.474915 -0.359619,6.445496c-0.726624,3.97052 -1.974548,9.645691 -3.430237,16.653076c-1.455627,7.007446 -3.113037,15.329529 -4.370728,24.620056c-1.051025,7.763794 -1.819763,16.208191 -1.936401,25.062683l-8.769165,0c0.241394,-9.40155 1.310669,-18.283203 2.793945,-26.335144c1.763611,-9.573547 4.073242,-18.006287 6.334839,-24.952026c2.261597,-6.94574 4.469788,-12.386658 6.196533,-16.072205c1.726685,-3.685486 2.97821,-5.611328 3.540833,-5.421936z" fill-rule="evenodd" fill="url(#svg_4)"/>
   <path id="path3054" d="m530.700745,355.703491c-0.654602,0 -1.268738,1.838989 -1.867737,5.099182c-0.598999,3.260132 -1.195435,7.954773 -1.778748,13.785522c-0.583313,5.83075 -1.137817,12.783691 -1.571228,20.544922c-0.433472,7.761169 -0.733459,16.335266 -0.563293,25.377197c0.005005,0.300354 0.022888,0.589905 0.029602,0.889404c0.031372,1.560303 0.086548,3.117126 0.148193,4.65448l9.486816,0c-0.049866,-1.6073 -0.110657,-3.223022 -0.148193,-4.862c-0.006042,-0.291809 -0.024048,-0.566956 -0.029602,-0.859741c-0.170532,-8.815186 -0.16095,-17.274292 -0.207581,-24.991821c-0.04657,-7.71759 -0.140198,-14.694092 -0.415039,-20.574585c-0.27478,-5.880493 -0.709473,-10.641907 -1.245117,-13.933716c-0.535645,-3.29187 -1.183472,-5.128845 -1.838074,-5.128845z" fill-rule="evenodd" fill="url(#svg_4)"/>
   <path d="m8.33387,435.991577c0.026001,-1.96698 0.03599,-3.935974 0,-5.937988c-0.027,-1.405029 -0.094999,-2.829041 -0.15601,-4.25c-0.375999,-8.723999 -1.412991,-17.108032 -3.186991,-24.781006c-1.774,-7.673035 -4.27,-14.642029 -7.3129,-20.718994c-2.7779,-5.640015 -6.0008,-10.512024 -9.25,-14.531006c-3.249209,-4.018982 -6.5367,-7.177979 -9.437499,-9.656006c-6.55711,-4.374023 -10.312901,-7.374023 -9.9687,-8.218994c0.36409,-0.833984 4.850899,0.596985 12.625,3.937988c3.5686,2.085022 7.64679,5.077026 11.749999,9.125c4.103201,4.046997 8.2091,9.179016 11.781091,15.312012c3.76001,6.536011 6.902,14.11499 9.125,22.437988c2.223011,8.322021 3.541,17.374023 3.90601,26.687012c0.060001,1.515991 0.082001,3.036987 0.09399,4.531006c0.020008,2.049011 -0.01099,4.055969 -0.061989,6.062988l-9.907001,0l0,0z" id="path4092" fill-rule="evenodd" fill="#2d5603"/>
   <path d="m40.9235,435.990997c0.2117,-1.947998 0.447601,-3.899994 0.625,-5.873993c1.051399,-11.705017 1.385201,-23.067993 1.083199,-33.790009c-0.349697,-12.553009 -1.586399,-24.244995 -3.249798,-34.665009c-1.663403,-10.418976 -3.7379,-19.544983 -5.666401,-27.122986c-1.928299,-7.578003 -3.6763,-13.612 -4.749699,-17.833008c-1.073402,-4.220001 -1.478703,-6.636993 -0.791603,-6.958008c0.687103,-0.319977 2.394604,1.485016 4.749702,5.25c2.355099,3.765015 5.375599,9.502014 8.457901,16.999023c3.082298,7.496979 6.197201,16.774994 8.7495,27.539978c2.552299,10.766022 4.512497,23.014008 5.291397,36.248016c0.661102,11.281982 0.514503,23.259003 -0.583298,35.540009c-0.140305,1.569 -0.290398,3.113983 -0.458298,4.665985l-13.457603,0l0,0z" id="path4090" fill-rule="evenodd" fill="#2d5603"/>
   <path d="m69.334267,435.991333c2.670334,-8.238586 5.430206,-16.085205 7.96875,-23.4375c2.735451,-7.922546 5.206924,-15.3125 7.21875,-22.09375c1.173386,-3.96228 2.199631,-7.703979 3.03125,-11.1875c0.831635,-3.483521 1.46096,-6.705261 1.9375,-9.65625c0.466507,-2.915588 0.770157,-5.564453 0.96875,-7.875c0.198601,-2.310547 0.283051,-4.275635 0.34375,-5.90625c0.060707,-1.630615 0.11895,-2.925049 0.21875,-3.8125c0.0998,-0.887451 0.256454,-1.375732 0.53125,-1.4375c0.274796,-0.061829 0.66111,0.311523 1.09375,1.125c0.43264,0.813477 0.921967,2.080505 1.375,3.75c0.453033,1.669495 0.851151,3.746399 1.125,6.21875c0.273865,2.472351 0.394394,5.318542 0.3125,8.46875c-0.078094,3.183777 -0.339966,6.688904 -0.84375,10.4375c-0.503784,3.748535 -1.232925,7.76239 -2.15625,11.9375c-1.574387,7.136963 -3.681824,14.854858 -6.15625,22.96875c-2.006638,6.580017 -4.27552,13.460205 -6.53125,20.5l-10.4375,0z" id="path4088" fill-rule="evenodd" fill="#2d5603"/>
   <path d="m113.021759,435.991333c0.058014,-1.47467 0.13562,-2.931885 0.1875,-4.424988c0.006012,-0.147461 -0.005005,-0.302307 0,-0.449951c0.423065,-12.603027 0.623718,-24.627563 0.862488,-35.624756c0.2388,-10.997192 0.541077,-20.964478 0.975006,-29.324768c0.433929,-8.360291 0.99469,-15.11908 1.687469,-19.799866c0.69281,-4.680786 1.497009,-7.274902 2.324982,-7.274902c0.828003,0 1.619598,2.57843 2.362488,7.237427c0.742889,4.658997 1.447876,11.388184 2.100006,19.724854c0.6521,8.33667 1.244934,18.292175 1.612488,29.362244c0.367523,11.070129 0.501038,23.271362 0.074982,36.112244c-0.005005,0.150452 0.005005,0.299683 0,0.450012c-0.045197,1.352478 -0.12912,2.673157 -0.1875,4.012451l-11.999908,0z" id="path4086" fill-rule="evenodd" fill="#2d5603"/>
   <path d="m144.427856,435.991577c0.253021,-6.309021 0.791016,-12.362 1.621002,-17.904968c1.005005,-6.717041 2.417999,-12.694031 3.987,-17.571045c1.569,-4.877014 3.269012,-8.661011 4.683014,-11.164978c1.412994,-2.505005 2.514008,-3.737 3.035004,-3.525024c0.522003,0.213013 0.417999,1.854004 -0.050995,4.605042c-0.468994,2.751953 -1.27002,6.621948 -2.058014,11.447998c-0.787994,4.825989 -1.54599,10.60199 -2.083984,17.08197c-0.437012,5.262024 -0.71402,11.01001 -0.901001,17.031006l-8.232025,0l0,0z" id="path4038" fill-rule="evenodd" fill="#2d5603"/>
   <path d="m249.302887,333.953552c-0.309998,-0.004944 -0.811005,0.384033 -1.468018,1.188049c-0.751007,0.917969 -1.704987,2.378967 -2.75,4.343994c-1.04599,1.963989 -2.174988,4.437988 -3.25,7.437012c-1.075989,2.998962 -2.089996,6.529968 -2.875,10.5c-0.720001,3.640991 -1.234009,7.649963 -1.5,11.968994c-0.266998,4.31897 -0.272003,8.948975 0.031006,13.781006c0.450989,7.134949 1.493011,14.719971 3.125,22.562988c1.631989,7.842957 3.847992,15.937012 6.375,24.125c0.515015,1.669006 1.036987,3.300964 1.562012,4.937012c0.205994,0.643982 0.417999,1.266968 0.625,1.905945l10.437988,0c-0.526001,-1.640991 -1.040009,-3.241943 -1.562988,-4.905945c-0.505005,-1.618042 -0.997009,-3.236023 -1.5,-4.875c-2.46701,-8.038025 -4.694,-15.858032 -6.468018,-23.312012c-1.774994,-7.455017 -3.087982,-14.545044 -3.875,-21.218994c-0.535004,-4.506042 -0.852997,-8.822998 -0.937988,-12.843994c-0.084991,-4.021057 0.059998,-7.755005 0.343994,-11.187012c0.614014,-7.470032 1.946014,-13.450012 2.906006,-17.593994c0.47998,-2.072021 0.848999,-3.699036 1.031006,-4.843994c0.182983,-1.14502 0.165985,-1.798035 -0.125,-1.937012c-0.036011,-0.018005 -0.080017,-0.031006 -0.125,-0.032043l0,0z" id="path4082" fill-rule="evenodd" fill="url(#svg_4)"/>
   <path d="m198.749207,334.665344c-0.11322,-0.022583 -0.265167,0.020386 -0.374451,0.187256c-0.109283,0.166809 -0.160645,0.488037 -0.187225,0.711426c-0.056091,0.394958 -0.061096,0.907532 0,1.497803c0.120544,1.166809 0.470612,2.734985 0.973572,4.605774c1.000793,3.718567 2.688599,8.82843 4.718109,15.05304c4.0065,12.282959 9.445984,29.154358 13.667572,49.053467c2.050079,9.673096 3.763641,20.075439 4.94278,30.929871l12.094849,0c-1.28299,-11.858887 -3.443878,-23.157166 -6.066132,-33.513611c-2.594177,-10.25415 -5.642212,-19.596802 -8.762238,-27.859375c-3.119965,-8.262512 -6.300293,-15.437317 -9.211548,-21.343872c-2.960693,-6.008911 -5.604218,-10.66571 -7.638855,-13.929626c-1.032043,-1.660217 -1.879028,-2.921936 -2.546295,-3.819458c-0.341003,-0.463379 -0.627533,-0.794556 -0.861237,-1.048462c-0.151733,-0.233582 -0.331421,-0.266296 -0.449341,-0.337036c-0.117889,-0.070679 -0.186432,-0.164551 -0.299561,-0.187195z" id="path4080" fill-rule="evenodd" fill="url(#svg_4)"/>
   <path d="m176.771942,354.485229c-0.635559,0.213989 -0.414581,2.795837 0.40625,7.28125c0.820831,4.485413 2.23056,10.896423 3.875,18.8125c1.64444,7.916077 3.516693,17.317261 4.9375,27.8125c1.187317,8.770508 2.055756,18.309814 2.1875,28.3125l9.90625,0c-0.272705,-10.620605 -1.480652,-20.653992 -3.15625,-29.75c-1.992249,-10.814941 -4.60141,-20.341064 -7.15625,-28.1875c-2.55484,-7.846436 -5.049408,-13.992798 -7,-18.15625c-1.950592,-4.163452 -3.364441,-6.338989 -4,-6.125z" id="path4078" fill-rule="evenodd" fill="url(#svg_4)"/>
   <path d="m277.032593,356.496948c-0.739471,0 -1.433228,2.077454 -2.109894,5.760376c-0.676666,3.682922 -1.350494,8.986267 -2.00943,15.573059c-0.658936,6.586792 -1.28537,14.441345 -1.774994,23.208923c-0.489624,8.767639 -0.828491,18.453491 -0.636322,28.667908c0.006012,0.339294 0.025909,0.666382 0.033417,1.0047c0.0354,1.762573 0.097778,3.521301 0.16745,5.257996l10.716949,0c-0.056396,-1.815674 -0.125031,-3.64093 -0.16745,-5.492432c-0.007019,-0.329651 -0.0271,-0.640442 -0.033417,-0.971252c-0.192596,-9.958191 -0.181793,-19.514221 -0.234436,-28.232483c-0.052582,-8.718262 -0.158417,-16.599365 -0.468842,-23.242432c-0.310455,-6.642944 -0.801483,-12.02179 -1.406616,-15.740479c-0.605133,-3.718689 -1.336945,-5.793884 -2.076416,-5.793884z" id="path4076" fill-rule="evenodd" fill="url(#svg_4)"/>
   <path d="m286.865692,364.766479c-0.657135,0.203613 -0.605988,2.432312 -0.15625,6.28125c0.449768,3.848999 1.302002,9.326782 2.1875,16.09375c0.885498,6.766907 1.780914,14.838806 2.5,23.84375c0.633545,7.933716 1.111084,16.617554 1.46875,25.71875l10,0c-0.411377,-9.438477 -1.185028,-18.48291 -2.3125,-26.71875c-1.260803,-9.209717 -2.936249,-17.429993 -4.75,-24.21875c-1.813751,-6.788696 -3.75882,-12.148743 -5.375,-15.75c-1.61618,-3.601196 -2.905334,-5.453613 -3.5625,-5.25z" id="path4068" fill-rule="evenodd" fill="url(#svg_4)"/>
   <path id="path2886" d="m8.33387,435.991577c0.026001,-1.96698 0.03599,-3.935974 0,-5.937988c-0.027,-1.405029 -0.094999,-2.829041 -0.15601,-4.25c-0.375999,-8.723999 -1.412991,-17.108032 -3.186991,-24.781006c-1.774,-7.673035 -4.27,-14.642029 -7.3129,-20.718994c-2.7779,-5.640015 -6.0008,-10.512024 -9.25,-14.531006c-3.249209,-4.018982 -6.5367,-7.177979 -9.437499,-9.656006c-6.55711,-4.374023 -10.312901,-7.374023 -9.9687,-8.218994c0.36409,-0.833984 4.850899,0.596985 12.625,3.937988c3.5686,2.085022 7.64679,5.077026 11.749999,9.125c4.103201,4.046997 8.2091,9.179016 11.781091,15.312012c3.76001,6.536011 6.902,14.11499 9.125,22.437988c2.223011,8.322021 3.541,17.374023 3.90601,26.687012c0.060001,1.515991 0.082001,3.036987 0.09399,4.531006c0.020008,2.049011 -0.01099,4.055969 -0.061989,6.062988l-9.907001,0l0,0z" fill-rule="evenodd" fill="url(#svg_6)"/>
   <path id="path2888" d="m40.9235,435.990997c0.2117,-1.947998 0.447601,-3.899994 0.625,-5.873993c1.051399,-11.705017 1.385201,-23.067993 1.083199,-33.790009c-0.349697,-12.553009 -1.586399,-24.244995 -3.249798,-34.665009c-1.663403,-10.418976 -3.7379,-19.544983 -5.666401,-27.122986c-1.928299,-7.578003 -3.6763,-13.612 -4.749699,-17.833008c-1.073402,-4.220001 -1.478703,-6.636993 -0.791603,-6.958008c0.687103,-0.319977 2.394604,1.485016 4.749702,5.25c2.355099,3.765015 5.375599,9.502014 8.457901,16.999023c3.082298,7.496979 6.197201,16.774994 8.7495,27.539978c2.552299,10.766022 4.512497,23.014008 5.291397,36.248016c0.661102,11.281982 0.514503,23.259003 -0.583298,35.540009c-0.140305,1.569 -0.290398,3.113983 -0.458298,4.665985l-13.457603,0l0,0z" fill-rule="evenodd" fill="url(#svg_6)"/>
   <path id="path2890" d="m69.334267,435.991333c2.670334,-8.238586 5.430206,-16.085205 7.96875,-23.4375c2.735451,-7.922546 5.206924,-15.3125 7.21875,-22.09375c1.173386,-3.96228 2.199631,-7.703979 3.03125,-11.1875c0.831635,-3.483521 1.46096,-6.705261 1.9375,-9.65625c0.466507,-2.915588 0.770157,-5.564453 0.96875,-7.875c0.198601,-2.310547 0.283051,-4.275635 0.34375,-5.90625c0.060707,-1.630615 0.11895,-2.925049 0.21875,-3.8125c0.0998,-0.887451 0.256454,-1.375732 0.53125,-1.4375c0.274796,-0.061829 0.66111,0.311523 1.09375,1.125c0.43264,0.813477 0.921967,2.080505 1.375,3.75c0.453033,1.669495 0.851151,3.746399 1.125,6.21875c0.273865,2.472351 0.394394,5.318542 0.3125,8.46875c-0.078094,3.183777 -0.339966,6.688904 -0.84375,10.4375c-0.503784,3.748535 -1.232925,7.76239 -2.15625,11.9375c-1.574387,7.136963 -3.681824,14.854858 -6.15625,22.96875c-2.006638,6.580017 -4.27552,13.460205 -6.53125,20.5l-10.4375,0z" fill-rule="evenodd" fill="url(#svg_6)"/>
   <path id="path2892" d="m113.021759,435.991333c0.058014,-1.47467 0.13562,-2.931885 0.1875,-4.424988c0.006012,-0.147461 -0.005005,-0.302307 0,-0.449951c0.423065,-12.603027 0.623718,-24.627563 0.862488,-35.624756c0.2388,-10.997192 0.541077,-20.964478 0.975006,-29.324768c0.433929,-8.360291 0.99469,-15.11908 1.687469,-19.799866c0.69281,-4.680786 1.497009,-7.274902 2.324982,-7.274902c0.828003,0 1.619598,2.57843 2.362488,7.237427c0.742889,4.658997 1.447876,11.388184 2.100006,19.724854c0.6521,8.33667 1.244934,18.292175 1.612488,29.362244c0.367523,11.070129 0.501038,23.271362 0.074982,36.112244c-0.005005,0.150452 0.005005,0.299683 0,0.450012c-0.045197,1.352478 -0.12912,2.673157 -0.1875,4.012451l-11.999908,0z" fill-rule="evenodd" fill="url(#svg_6)"/>
   <path id="path2894" d="m144.427856,435.991577c0.253021,-6.309021 0.791016,-12.362 1.621002,-17.904968c1.005005,-6.717041 2.417999,-12.694031 3.987,-17.571045c1.569,-4.877014 3.269012,-8.661011 4.683014,-11.164978c1.412994,-2.505005 2.514008,-3.737 3.035004,-3.525024c0.522003,0.213013 0.417999,1.854004 -0.050995,4.605042c-0.468994,2.751953 -1.27002,6.621948 -2.058014,11.447998c-0.787994,4.825989 -1.54599,10.60199 -2.083984,17.08197c-0.437012,5.262024 -0.71402,11.01001 -0.901001,17.031006l-8.232025,0l0,0z" fill-rule="evenodd" fill="#2d5603"/>
   <path id="path2896" d="m249.302887,333.953552c-0.309998,-0.004944 -0.811005,0.384033 -1.468018,1.188049c-0.751007,0.917969 -1.704987,2.378967 -2.75,4.343994c-1.04599,1.963989 -2.174988,4.437988 -3.25,7.437012c-1.075989,2.998962 -2.089996,6.529968 -2.875,10.5c-0.720001,3.640991 -1.234009,7.649963 -1.5,11.968994c-0.266998,4.31897 -0.272003,8.948975 0.031006,13.781006c0.450989,7.134949 1.493011,14.719971 3.125,22.562988c1.631989,7.842957 3.847992,15.937012 6.375,24.125c0.515015,1.669006 1.036987,3.300964 1.562012,4.937012c0.205994,0.643982 0.417999,1.266968 0.625,1.905945l10.437988,0c-0.526001,-1.640991 -1.040009,-3.241943 -1.562988,-4.905945c-0.505005,-1.618042 -0.997009,-3.236023 -1.5,-4.875c-2.46701,-8.038025 -4.694,-15.858032 -6.468018,-23.312012c-1.774994,-7.455017 -3.087982,-14.545044 -3.875,-21.218994c-0.535004,-4.506042 -0.852997,-8.822998 -0.937988,-12.843994c-0.084991,-4.021057 0.059998,-7.755005 0.343994,-11.187012c0.614014,-7.470032 1.946014,-13.450012 2.906006,-17.593994c0.47998,-2.072021 0.848999,-3.699036 1.031006,-4.843994c0.182983,-1.14502 0.165985,-1.798035 -0.125,-1.937012c-0.036011,-0.018005 -0.080017,-0.031006 -0.125,-0.032043l0,0z" fill-rule="evenodd" fill="url(#svg_4)"/>
   <path id="path2898" d="m198.749207,334.665344c-0.11322,-0.022583 -0.265167,0.020386 -0.374451,0.187256c-0.109283,0.166809 -0.160645,0.488037 -0.187225,0.711426c-0.056091,0.394958 -0.061096,0.907532 0,1.497803c0.120544,1.166809 0.470612,2.734985 0.973572,4.605774c1.000793,3.718567 2.688599,8.82843 4.718109,15.05304c4.0065,12.282959 9.445984,29.154358 13.667572,49.053467c2.050079,9.673096 3.763641,20.075439 4.94278,30.929871l12.094849,0c-1.28299,-11.858887 -3.443878,-23.157166 -6.066132,-33.513611c-2.594177,-10.25415 -5.642212,-19.596802 -8.762238,-27.859375c-3.119965,-8.262512 -6.300293,-15.437317 -9.211548,-21.343872c-2.960693,-6.008911 -5.604218,-10.66571 -7.638855,-13.929626c-1.032043,-1.660217 -1.879028,-2.921936 -2.546295,-3.819458c-0.341003,-0.463379 -0.627533,-0.794556 -0.861237,-1.048462c-0.151733,-0.233582 -0.331421,-0.266296 -0.449341,-0.337036c-0.117889,-0.070679 -0.186432,-0.164551 -0.299561,-0.187195z" fill-rule="evenodd" fill="url(#svg_4)"/>
   <path id="path2900" d="m176.771942,354.485229c-0.635559,0.213989 -0.414581,2.795837 0.40625,7.28125c0.820831,4.485413 2.23056,10.896423 3.875,18.8125c1.64444,7.916077 3.516693,17.317261 4.9375,27.8125c1.187317,8.770508 2.055756,18.309814 2.1875,28.3125l9.90625,0c-0.272705,-10.620605 -1.480652,-20.653992 -3.15625,-29.75c-1.992249,-10.814941 -4.60141,-20.341064 -7.15625,-28.1875c-2.55484,-7.846436 -5.049408,-13.992798 -7,-18.15625c-1.950592,-4.163452 -3.364441,-6.338989 -4,-6.125z" fill-rule="evenodd" fill="url(#svg_4)"/>
   <path id="path2902" d="m277.032593,356.496948c-0.739471,0 -1.433228,2.077454 -2.109894,5.760376c-0.676666,3.682922 -1.350494,8.986267 -2.00943,15.573059c-0.658936,6.586792 -1.28537,14.441345 -1.774994,23.208923c-0.489624,8.767639 -0.828491,18.453491 -0.636322,28.667908c0.006012,0.339294 0.025909,0.666382 0.033417,1.0047c0.0354,1.762573 0.097778,3.521301 0.16745,5.257996l10.716949,0c-0.056396,-1.815674 -0.125031,-3.64093 -0.16745,-5.492432c-0.007019,-0.329651 -0.0271,-0.640442 -0.033417,-0.971252c-0.192596,-9.958191 -0.181793,-19.514221 -0.234436,-28.232483c-0.052582,-8.718262 -0.158417,-16.599365 -0.468842,-23.242432c-0.310455,-6.642944 -0.801483,-12.02179 -1.406616,-15.740479c-0.605133,-3.718689 -1.336945,-5.793884 -2.076416,-5.793884z" fill-rule="evenodd" fill="url(#svg_4)"/>
   <path id="path2904" d="m286.865692,364.766479c-0.657135,0.203613 -0.605988,2.432312 -0.15625,6.28125c0.449768,3.848999 1.302002,9.326782 2.1875,16.09375c0.885498,6.766907 1.780914,14.838806 2.5,23.84375c0.633545,7.933716 1.111084,16.617554 1.46875,25.71875l10,0c-0.411377,-9.438477 -1.185028,-18.48291 -2.3125,-26.71875c-1.260803,-9.209717 -2.936249,-17.429993 -4.75,-24.21875c-1.813751,-6.788696 -3.75882,-12.148743 -5.375,-15.75c-1.61618,-3.601196 -2.905334,-5.453613 -3.5625,-5.25z" fill-rule="evenodd" fill="url(#svg_4)"/>
   <path d="m16.394871,425.972595c0.026001,-2.02002 0.035999,-4.041992 0,-6.098022c-0.028,-1.442993 -0.098,-2.906006 -0.161011,-4.36499c-0.38599,-8.958984 -1.450991,-17.569031 -3.272989,-25.448975c-1.822001,-7.880005 -4.385,-15.036011 -7.51,-21.277039c-2.853001,-5.792969 -6.1623,-10.796021 -9.499101,-14.922974c-3.3368,-4.127014 -6.713,-7.371033 -9.69191,-9.916992c-6.733991,-4.492004 -10.590991,-7.572021 -10.237491,-8.440002c0.373901,-0.856995 4.9816,0.612976 12.965301,4.044006c3.6649,2.141968 7.852901,5.213989 12.067201,9.370972c4.212999,4.156006 8.43,9.427002 12.098,15.724976c3.862,6.712036 7.088001,14.494995 9.370998,23.042053c2.283001,8.546997 3.637001,17.842957 4.012001,27.406982c0.061001,1.557983 0.084,3.119019 0.096001,4.653992c0.02,2.102966 -0.011002,4.164001 -0.063999,6.226013l-10.173,0l0,0z" id="path2906" fill-rule="evenodd" fill="url(#svg_6)"/>
   <path d="m49.862312,425.972168c0.217384,-2.001282 0.459671,-4.005493 0.6418,-6.03302c1.079788,-12.020386 1.422554,-23.689087 1.112488,-34.700623c-0.359192,-12.891174 -1.629227,-24.898682 -3.337433,-35.599182c-1.708206,-10.700439 -3.838696,-20.072449 -5.819107,-27.854614c-1.980381,-7.782166 -3.775391,-13.978394 -4.87775,-18.313049c-1.102371,-4.334595 -1.51857,-6.816223 -0.812969,-7.145508c0.705601,-0.329285 2.459198,1.524658 4.877758,5.391235c2.41861,3.866577 5.520458,9.75824 8.685871,17.457275c3.165367,7.699036 6.364243,17.226685 8.985352,28.282532c2.621117,11.055786 4.634132,23.633606 5.434021,37.225037c0.67894,11.585876 0.528366,23.885315 -0.59903,36.497742c-0.144073,1.611816 -0.298195,3.197876 -0.470673,4.792175l-13.820328,0z" id="path2908" fill-rule="evenodd" fill="url(#svg_6)"/>
   <path d="m79.038979,425.972168c2.74231,-8.460693 5.576584,-16.51886 8.183563,-24.069275c2.809189,-8.136169 5.347275,-15.725281 7.41333,-22.689331c1.205025,-4.069092 2.258942,-7.911682 3.112968,-11.489075c0.854057,-3.577454 1.500343,-6.886047 1.989746,-9.916565c0.479065,-2.994202 0.790924,-5.714478 0.994843,-8.08728c0.203949,-2.372864 0.29068,-4.39093 0.353027,-6.065491c0.062286,-1.674561 0.122162,-3.003906 0.22464,-3.915283c0.10247,-0.911377 0.263367,-1.412781 0.545593,-1.476257c0.282158,-0.063477 0.678917,0.319946 1.12323,1.155334c0.444267,0.835449 0.946808,2.136597 1.412048,3.851074c0.465271,1.714539 0.874115,3.847412 1.155334,6.386414c0.28125,2.539001 0.405029,5.461914 0.320915,8.697021c-0.0802,3.269592 -0.349144,6.869263 -0.866478,10.718872c-0.517372,3.849609 -1.266182,7.97168 -2.214386,12.259338c-1.616821,7.329285 -3.781105,15.255249 -6.322212,23.587891c-2.06073,6.757385 -4.390755,13.823059 -6.707314,21.052612l-10.718849,0z" id="path2910" fill-rule="evenodd" fill="url(#svg_6)"/>
   <path d="m123.90387,425.972595c0.059998,-1.515015 0.139984,-3.010986 0.192993,-4.545044c0.006012,-0.151001 -0.005005,-0.309998 0,-0.461975c0.43399,-12.942993 0.640015,-25.291016 0.886017,-36.585022c0.244995,-11.292969 0.554993,-21.528992 1.000977,-30.11499c0.445007,-8.585999 1.021027,-15.526978 1.733002,-20.333984c0.710999,-4.807007 1.537018,-7.471008 2.387024,-7.471008c0.850983,0 1.663971,2.64801 2.426971,7.432983c0.763,4.783997 1.487,11.695007 2.156006,20.256042c0.670013,8.562012 1.279022,18.786011 1.656006,30.153992c0.377991,11.369019 0.515015,23.898987 0.076996,37.085999c-0.005005,0.153992 0.005005,0.307983 0,0.461975c-0.04599,1.389038 -0.131989,2.744995 -0.191986,4.121033l-12.324005,0l0,0z" id="path2912" fill-rule="evenodd" fill="#2d5603"/>
   <path d="m156.15686,425.972595c0.26001,-6.479004 0.813019,-12.695007 1.665009,-18.388c1.032013,-6.89801 2.483002,-13.036011 4.095001,-18.045044c1.610992,-5.007996 3.356018,-8.893982 4.808014,-11.465942c1.451996,-2.572021 2.582001,-3.838013 3.117004,-3.619019c0.53598,0.218018 0.428986,1.903015 -0.052002,4.729004c-0.482025,2.825989 -1.305023,6.800964 -2.114014,11.755981c-0.80899,4.955994 -1.587006,10.888 -2.139984,17.54303c-0.449005,5.402954 -0.733002,11.306946 -0.925018,17.48999l-8.45401,0l0,0z" id="path2914" fill-rule="evenodd" fill="#2d5603"/>
   <path d="m263.858887,321.18457c-0.318024,-0.005005 -0.833008,0.393982 -1.508026,1.218994c-0.770996,0.942993 -1.750977,2.442993 -2.823975,4.460999c-1.072998,2.018005 -2.233002,4.558044 -3.338013,7.638c-1.105011,3.080017 -2.144989,6.705994 -2.951996,10.78302c-0.739014,3.739014 -1.266998,7.856018 -1.541016,12.291016c-0.273987,4.435974 -0.278992,9.190002 0.032013,14.152954c0.463989,7.327026 1.53299,15.116028 3.209991,23.171021c1.675995,8.054016 3.951996,16.366028 6.546021,24.775024c0.528992,1.714966 1.065002,3.390991 1.60498,5.070984c0.212006,0.661011 0.429016,1.301025 0.641998,1.95697l10.719025,0c-0.540009,-1.684998 -1.068024,-3.329956 -1.605011,-5.037964c-0.519012,-1.661987 -1.024017,-3.322998 -1.540009,-5.007019c-2.533997,-8.253967 -4.820984,-16.284973 -6.643005,-23.940979c-1.822998,-7.655029 -3.17099,-14.936035 -3.97998,-21.790039c-0.549011,-4.627991 -0.875,-9.060974 -0.963013,-13.190002c-0.087006,-4.129944 0.062012,-7.963989 0.352997,-11.488953c0.631012,-7.671021 1.998993,-13.812988 2.985016,-18.067993c0.492981,-2.128052 0.871979,-3.799011 1.05899,-4.975037c0.187012,-1.174988 0.17099,-1.846008 -0.127991,-1.989014c-0.037994,-0.017944 -0.083008,-0.031982 -0.128998,-0.031982l0,0z" id="path2916" fill-rule="evenodd" fill="url(#svg_4)"/>
   <path d="m211.942566,321.914673c-0.116272,-0.023193 -0.272308,0.020874 -0.384552,0.192261c-0.112213,0.171326 -0.164948,0.501221 -0.192261,0.730652c-0.057617,0.405579 -0.062714,0.932007 0,1.538208c0.12381,1.198242 0.483276,2.808655 0.999817,4.729919c1.02774,3.818787 2.761078,9.066406 4.845306,15.458801c4.114471,12.614075 9.700592,29.940247 14.03598,50.375793c2.105377,9.933838 3.865112,20.616577 5.07605,31.763611l12.420898,0c-1.317596,-12.178528 -3.536743,-23.781433 -6.229675,-34.416992c-2.664124,-10.530579 -5.794342,-20.125061 -8.998444,-28.610352c-3.204102,-8.485291 -6.470123,-15.853455 -9.459869,-21.91925c-3.040497,-6.170959 -5.75528,-10.953247 -7.844757,-14.305176c-1.059875,-1.704956 -1.929718,-3.000671 -2.614929,-3.922363c-0.35022,-0.475891 -0.64447,-0.81604 -0.88446,-1.076782c-0.155853,-0.239807 -0.340393,-0.273438 -0.461487,-0.346069c-0.121063,-0.072571 -0.191437,-0.169006 -0.307617,-0.192261z" id="path2918" fill-rule="evenodd" fill="url(#svg_4)"/>
   <path d="m189.372833,342.26886c-0.652679,0.219727 -0.425751,2.871216 0.417206,7.477539c0.842957,4.606323 2.29068,11.190186 3.979462,19.319641c1.688751,8.129456 3.611481,17.784058 5.070587,28.562195c1.21933,9.006958 2.111176,18.803406 2.24646,29.075745l10.173309,0c-0.28006,-10.906921 -1.520569,-21.210754 -3.241333,-30.551941c-2.045959,-11.106506 -4.725464,-20.889465 -7.349182,-28.947388c-2.623718,-8.057922 -5.185516,-14.369995 -7.18869,-18.645691c-2.003174,-4.275635 -3.455139,-6.509827 -4.107819,-6.2901z" id="path2920" fill-rule="evenodd" fill="url(#svg_4)"/>
   <path d="m292.336212,344.334839c-0.759399,0 -1.471863,2.133484 -2.166779,5.915649c-0.694916,3.782166 -1.386871,9.228516 -2.063599,15.99292c-0.676697,6.764343 -1.320007,14.830566 -1.822815,23.834534c-0.502838,9.003967 -0.850861,18.950928 -0.653503,29.440674c0.006012,0.34845 0.026611,0.684326 0.034302,1.031799c0.036407,1.81012 0.100433,3.616211 0.171997,5.399719l11.005829,0c-0.057892,-1.864624 -0.128387,-3.739075 -0.171967,-5.640503c-0.006989,-0.338501 -0.027802,-0.657654 -0.034302,-0.997375c-0.197784,-10.226685 -0.186707,-20.040283 -0.240753,-28.993591c-0.053986,-8.953247 -0.162689,-17.046814 -0.481506,-23.868958c-0.318817,-6.822021 -0.82309,-12.345886 -1.444519,-16.164795c-0.621429,-3.81897 -1.372986,-5.950073 -2.132385,-5.950073z" id="path2922" fill-rule="evenodd" fill="url(#svg_4)"/>
   <path d="m302.434387,352.827271c-0.674866,0.209106 -0.622345,2.497864 -0.160461,6.450562c0.461884,3.952759 1.337097,9.578247 2.24646,16.527588c0.909393,6.949341 1.828918,15.238831 2.567413,24.486511c0.650604,8.147583 1.141022,17.065491 1.508331,26.412048l10.269562,0c-0.422455,-9.692932 -1.216949,-18.98114 -2.374847,-27.439026c-1.2948,-9.457947 -3.015381,-17.899841 -4.878021,-24.871582c-1.862671,-6.971741 -3.860168,-12.476257 -5.519897,-16.174561c-1.65976,-3.698303 -2.983673,-5.600647 -3.658539,-5.391541z" id="path2924" fill-rule="evenodd" fill="url(#svg_4)"/>
   <path id="path2926" d="m36.480869,429.073608c0.022999,-1.742004 0.030991,-3.484009 0,-5.256042c-0.023998,-1.244995 -0.084,-2.505005 -0.139,-3.763c-0.333,-7.721985 -1.250999,-15.143982 -2.820999,-21.935974c-1.570999,-6.79303 -3.779999,-12.960999 -6.473,-18.341003c-2.459,-4.992981 -5.312,-9.304993 -8.189011,-12.863037c-2.875999,-3.557983 -5.78599,-6.353943 -8.353991,-8.547974c-5.803999,-3.872009 -9.129,-6.526978 -8.823999,-7.275024c0.322001,-0.738953 4.294001,0.528015 11.176001,3.485046c3.158998,1.846008 6.768999,4.494995 10.400999,8.078003c3.632,3.582947 7.266991,8.125977 10.429001,13.554993c3.327999,5.784973 6.110001,12.493958 8.076988,19.862c1.968002,7.367004 3.13501,15.380005 3.458012,23.623962c0.05299,1.342041 0.072998,2.688049 0.082989,4.011047c0.017002,1.812988 -0.009991,3.589966 -0.054989,5.367004l-8.769001,0l0,0z" fill-rule="evenodd" fill="url(#svg_6)"/>
   <path id="path2928" d="m65.329079,429.073181c0.187393,-1.725098 0.396225,-3.452698 0.553223,-5.200378c0.930756,-10.361267 1.226212,-20.419495 0.958939,-29.911194c-0.309624,-11.111877 -1.404358,-21.462158 -2.876778,-30.68573c-1.47245,-9.223572 -3.308891,-17.302063 -5.015976,-24.010071c-1.707039,-6.708069 -3.254295,-12.049133 -4.204506,-15.785522c-0.950233,-3.736328 -1.308968,-5.875427 -0.70076,-6.159241c0.6082,-0.283813 2.119766,1.314209 4.204529,4.647095c2.084778,3.332886 4.758514,8.411438 7.48703,15.047852c2.728477,6.636353 5.48584,14.84906 7.745193,24.378906c2.259338,9.529846 3.994514,20.371704 4.684006,32.08728c0.585228,9.986755 0.455444,20.588562 -0.516357,31.460205c-0.124168,1.389404 -0.257019,2.756531 -0.405701,4.130798l-11.912842,0z" fill-rule="evenodd" fill="url(#svg_6)"/>
   <path id="path2930" d="m90.478752,429.073181c2.3638,-7.292969 4.8069,-14.238892 7.054054,-20.747253c2.42144,-7.013184 4.609253,-13.55481 6.390137,-19.557739c1.038727,-3.507446 1.947144,-6.819702 2.683319,-9.90332c0.736176,-3.083679 1.293282,-5.935608 1.715118,-8.547852c0.412926,-2.580933 0.681732,-4.925781 0.857536,-6.971069c0.175797,-2.045349 0.250549,-3.784912 0.304306,-5.228333c0.05368,-1.44342 0.105278,-2.589294 0.193626,-3.374878c0.088287,-0.785583 0.22702,-1.217773 0.470284,-1.272522c0.243248,-0.054688 0.585228,0.275757 0.968193,0.995911c0.382996,0.720093 0.816132,1.841675 1.217163,3.319519c0.401062,1.477905 0.753448,3.316406 0.99588,5.504944c0.242432,2.188538 0.349121,4.708069 0.276642,7.496643c-0.069122,2.818359 -0.300964,5.921204 -0.746918,9.239502c-0.445953,3.318237 -1.0914,6.871399 -1.908752,10.567261c-1.393684,6.317688 -3.259209,13.149719 -5.449608,20.332275c-1.776314,5.824707 -3.784737,11.915161 -5.781563,18.146912l-9.239418,0z" fill-rule="evenodd" fill="url(#svg_6)"/>
   <path id="path2932" d="m129.151855,429.073608c0.051025,-1.30603 0.120026,-2.596008 0.166016,-3.917053c0.005005,-0.130981 -0.003998,-0.268005 0,-0.398987c0.373993,-11.156006 0.552002,-21.799988 0.763,-31.534973c0.212006,-9.735046 0.479004,-18.558044 0.863007,-25.959045c0.384003,-7.401001 0.880981,-13.383972 1.493988,-17.526978c0.613007,-4.143982 1.325012,-6.440002 2.058014,-6.440002c0.733002,0 1.43399,2.281982 2.090973,6.406982c0.65802,4.124023 1.282013,10.081055 1.859009,17.460022c0.578003,7.380005 1.10202,16.192993 1.428009,25.992004c0.324982,9.799988 0.442993,20.599976 0.06601,31.96698c-0.003998,0.134033 0.003998,0.265991 0,0.399048c-0.040009,1.19696 -0.114014,2.365967 -0.166016,3.552002l-10.622009,0l0,0z" fill-rule="evenodd" fill="url(#svg_6)"/>
   <path id="path2934" d="m156.952881,429.073608c0.223999,-5.585022 0.699982,-10.943054 1.434998,-15.850037c0.889984,-5.945984 2.140991,-11.237 3.529999,-15.554016c1.388,-4.317993 2.893005,-7.666992 4.144012,-9.883972c1.251984,-2.21698 2.225983,-3.307983 2.686981,-3.119995c0.462006,0.188965 0.369995,1.640991 -0.044983,4.076965c-0.415009,2.434998 -1.124023,5.862 -1.822021,10.134033c-0.696991,4.271973 -1.367981,9.38501 -1.845001,15.120972c-0.385986,4.657043 -0.630981,9.746033 -0.796997,15.07605l-7.286987,0l0,0z" fill-rule="evenodd" fill="url(#svg_6)"/>
   <path id="path2936" d="m249.789886,338.748596c-0.274017,-0.004028 -0.718018,0.338989 -1.300018,1.050964c-0.664978,0.812988 -1.509003,2.106018 -2.43399,3.845032c-0.924988,1.739014 -1.924988,3.929016 -2.877014,6.583984c-0.953003,2.653992 -1.849976,5.780029 -2.544983,9.294006c-0.636993,3.223022 -1.09201,6.771973 -1.328003,10.594971c-0.235992,3.824036 -0.240997,7.921997 0.027008,12.200012c0.399994,6.315002 1.321991,13.030029 2.766998,19.971985c1.444977,6.943054 3.406982,14.108032 5.643005,21.356018c0.455994,1.478027 0.917999,2.923035 1.382996,4.371033c0.181976,0.570007 0.369995,1.121948 0.552979,1.686951l9.240021,0c-0.466003,-1.451965 -0.921021,-2.869995 -1.382996,-4.342957c-0.448029,-1.432007 -0.883026,-2.864014 -1.328003,-4.315002c-2.184021,-7.11499 -4.154999,-14.038025 -5.726013,-20.637024c-1.571991,-6.597961 -2.734009,-12.875 -3.431,-18.78302c-0.472992,-3.988953 -0.753998,-7.809998 -0.82901,-11.368958c-0.075989,-3.559998 0.052002,-6.86499 0.304016,-9.903992c0.544006,-6.612 1.722992,-11.906006 2.572998,-15.574036c0.424011,-1.833984 0.751007,-3.273987 0.911987,-4.287964c0.162018,-1.013 0.147003,-1.591003 -0.109985,-1.715027c-0.032013,-0.015015 -0.071991,-0.026978 -0.110992,-0.026978l0,0z" fill-rule="evenodd" fill="url(#svg_4)"/>
   <path id="path2938" d="m205.038879,339.377808c-0.10022,-0.02002 -0.234741,0.018005 -0.331482,0.165771c-0.09671,0.147644 -0.142181,0.432007 -0.165741,0.629761c-0.049591,0.349609 -0.053986,0.803345 0,1.325867c0.10672,1.032898 0.416595,2.421082 0.861847,4.077148c0.885895,3.291687 2.380005,7.815002 4.176544,13.325134c3.5466,10.873047 8.361694,25.807861 12.098724,43.422913c1.814789,8.562744 3.331635,17.771057 4.375458,27.379578l10.706543,0c-1.135742,-10.497681 -3.048584,-20.499084 -5.369843,-29.666748c-2.296417,-9.077148 -4.994598,-17.347412 -7.75647,-24.66156c-2.761871,-7.314087 -5.577118,-13.665344 -8.154205,-18.893921c-2.62088,-5.319214 -4.960938,-9.441467 -6.762054,-12.33075c-0.913574,-1.469666 -1.66333,-2.586487 -2.253998,-3.381042c-0.301849,-0.410156 -0.555511,-0.703369 -0.76239,-0.928101c-0.134308,-0.206726 -0.293396,-0.235718 -0.397766,-0.298279c-0.10437,-0.062622 -0.165039,-0.145691 -0.265167,-0.165771z" fill-rule="evenodd" fill="url(#svg_4)"/>
   <path id="path2940" d="m185.584259,356.922668c-0.562622,0.189392 -0.367004,2.474915 0.359619,6.445496c0.726624,3.97052 1.974518,9.645691 3.430206,16.653076c1.455688,7.007446 3.113037,15.329529 4.370758,24.620056c1.051025,7.763794 1.819794,16.208191 1.936401,25.062683l8.769165,0c-0.241425,-9.40155 -1.310699,-18.283203 -2.793976,-26.335144c-1.76355,-9.573547 -4.073212,-18.006287 -6.334808,-24.952026c-2.261597,-6.94574 -4.469818,-12.386658 -6.196503,-16.072205c-1.726715,-3.685486 -2.978271,-5.611328 -3.540863,-5.421936z" fill-rule="evenodd" fill="url(#svg_4)"/>
   <path id="path2942" d="m274.336548,358.703491c-0.654602,0 -1.268738,1.838989 -1.867737,5.099182c-0.598999,3.260132 -1.195435,7.954773 -1.778778,13.785522c-0.583282,5.83075 -1.137817,12.783691 -1.571228,20.544922c-0.433441,7.761169 -0.733398,16.335266 -0.563293,25.377197c0.005005,0.300354 0.022919,0.589905 0.029602,0.889404c0.031403,1.560303 0.086609,3.117126 0.148254,4.65448l9.486816,0c-0.049896,-1.6073 -0.110687,-3.223022 -0.148254,-4.862c-0.005981,-0.291809 -0.023987,-0.566956 -0.029602,-0.859741c-0.170502,-8.815186 -0.16095,-17.274292 -0.20752,-24.991821c-0.0466,-7.71759 -0.140228,-14.694092 -0.415039,-20.574585c-0.274811,-5.880493 -0.709503,-10.641907 -1.245148,-13.933716c-0.535675,-3.29187 -1.183502,-5.128845 -1.838074,-5.128845z" fill-rule="evenodd" fill="url(#svg_4)"/>
   <path id="path2944" d="m283.040955,366.023804c-0.581726,0.180237 -0.536438,2.153137 -0.138306,5.560242c0.398102,3.407166 1.152527,8.256287 1.936401,14.24646c0.783875,5.990173 1.576477,13.135498 2.213043,21.106873c0.560822,7.02301 0.983551,14.710083 1.30014,22.766602l8.852173,0c-0.364166,-8.355103 -1.049011,-16.361328 -2.047058,-23.651855c-1.116089,-8.152527 -2.599213,-15.429321 -4.204773,-21.438782c-1.60556,-6.00946 -3.327393,-10.754272 -4.758057,-13.942139c-1.430664,-3.187866 -2.571869,-4.827637 -3.153564,-4.6474z" fill-rule="evenodd" fill="url(#svg_4)"/>
   <path d="m179.536591,429.073181c-0.187378,-1.725098 -0.39624,-3.452698 -0.553223,-5.200378c-0.930756,-10.361267 -1.226227,-20.419495 -0.958923,-29.911194c0.309601,-11.111877 1.404327,-21.462158 2.87677,-30.68573c1.472443,-9.223572 3.308899,-17.302063 5.015961,-24.010071c1.707062,-6.708069 3.254303,-12.049133 4.204529,-15.785522c0.950226,-3.736328 1.30896,-5.875427 0.700745,-6.159241c-0.608215,-0.283813 -2.119751,1.314209 -4.204529,4.647095c-2.084778,3.332886 -4.758514,8.411438 -7.48703,15.047852c-2.728485,6.636353 -5.48584,14.84906 -7.745178,24.378906c-2.259369,9.529846 -3.994537,20.371704 -4.684021,32.08728c-0.585236,9.986755 -0.455444,20.588562 0.516357,31.460205c0.124176,1.389404 0.257019,2.756531 0.405701,4.130798l11.912842,0z" id="path2948" fill-rule="evenodd" fill="url(#svg_4)"/>
   <path d="m144.075867,338.748596c0.273987,-0.004028 0.717987,0.338989 1.299988,1.050964c0.665009,0.812988 1.509003,2.106018 2.434021,3.845032c0.924988,1.739014 1.924988,3.929016 2.876984,6.583984c0.953003,2.653992 1.850006,5.780029 2.545013,9.294006c0.636993,3.223022 1.09198,6.771973 1.328003,10.594971c0.235992,3.824036 0.240997,7.921997 -0.028015,12.200012c-0.398987,6.315002 -1.320984,13.030029 -2.765991,19.971985c-1.445007,6.943054 -3.407013,14.108032 -5.643005,21.356018c-0.455994,1.478027 -0.917999,2.923035 -1.382996,4.371033c-0.182007,0.570007 -0.369995,1.121948 -0.553986,1.686951l-9.239014,0c0.466003,-1.451965 0.92099,-2.869995 1.382996,-4.342957c0.447998,-1.432007 0.882996,-2.864014 1.328003,-4.315002c2.18399,-7.11499 4.154999,-14.038025 5.726013,-20.637024c1.571991,-6.597961 2.733978,-12.875 3.429993,-18.78302c0.473999,-3.988953 0.755005,-7.809998 0.829987,-11.368958c0.076019,-3.559998 -0.052002,-6.86499 -0.303986,-9.903992c-0.544006,-6.612 -1.722992,-11.906006 -2.572998,-15.574036c-0.424011,-1.833984 -0.751007,-3.273987 -0.912018,-4.287964c-0.161987,-1.013 -0.147003,-1.591003 0.110016,-1.715027c0.031982,-0.015015 0.071991,-0.026978 0.110992,-0.026978l0,0z" id="path2956" fill-rule="evenodd" fill="url(#svg_6)"/>
   <path d="m273.826813,344.377808c0.10022,-0.02002 0.234741,0.018005 0.331482,0.165771c0.09671,0.147644 0.142181,0.432007 0.165741,0.629761c0.049591,0.349609 0.053986,0.803345 0,1.325867c-0.10672,1.032898 -0.416595,2.421082 -0.861847,4.077148c-0.885895,3.291687 -2.380005,7.815002 -4.176544,13.325134c-3.5466,10.873047 -8.361694,25.807861 -12.098724,43.422913c-1.814789,8.562744 -3.331635,17.771057 -4.375458,27.379578l-10.706543,0c1.135742,-10.497681 3.048584,-20.499084 5.369843,-29.666748c2.296417,-9.077148 4.994598,-17.347412 7.75647,-24.66156c2.761871,-7.314087 5.577118,-13.665344 8.154205,-18.893921c2.62088,-5.319214 4.960938,-9.441467 6.762024,-12.33075c0.913605,-1.469666 1.663361,-2.586487 2.254028,-3.381042c0.301849,-0.410156 0.555481,-0.703369 0.76239,-0.928101c0.134308,-0.206726 0.293396,-0.235718 0.397766,-0.298279c0.10437,-0.062622 0.165039,-0.145691 0.265167,-0.165771z" id="path2958" fill-rule="evenodd" fill="url(#svg_4)"/>
   <path d="m319.281433,356.922668c0.562622,0.189392 0.367004,2.474915 -0.359619,6.445496c-0.726624,3.97052 -1.974518,9.645691 -3.430206,16.653076c-1.455688,7.007446 -3.113037,15.329529 -4.370758,24.620056c-1.051025,7.763794 -1.819794,16.208191 -1.936401,25.062683l-8.769165,0c0.241425,-9.40155 1.310699,-18.283203 2.793976,-26.335144c1.76355,-9.573547 4.073212,-18.006287 6.334808,-24.952026c2.261597,-6.94574 4.469818,-12.386658 6.196503,-16.072205c1.726715,-3.685486 2.978271,-5.611328 3.540863,-5.421936z" id="path2960" fill-rule="evenodd" fill="url(#svg_4)"/>
   <path d="m98.529137,355.703491c0.65461,0 1.268745,1.838989 1.867744,5.099182c0.598999,3.260132 1.195442,7.954773 1.778778,13.785522c0.583282,5.83075 1.137817,12.783691 1.571228,20.544922c0.433441,7.761169 0.733406,16.335266 0.563293,25.377197c-0.004997,0.300354 -0.022888,0.589905 -0.029602,0.889404c-0.031395,1.560303 -0.086609,3.117126 -0.148262,4.65448l-9.486794,0c0.049889,-1.6073 0.11068,-3.223022 0.148224,-4.862c0.006004,-0.291809 0.02401,-0.566956 0.02961,-0.859741c0.170502,-8.815186 0.16095,-17.274292 0.207535,-24.991821c0.0466,-7.71759 0.140251,-14.694092 0.415039,-20.574585c0.274811,-5.880493 0.709488,-10.641907 1.245148,-13.933716c0.535675,-3.29187 1.183495,-5.128845 1.838058,-5.128845z" id="path2962" fill-rule="evenodd" fill="url(#svg_6)"/>
   <path d="m163.824738,362.023804c0.581726,0.180237 0.536438,2.153137 0.138306,5.560242c-0.398132,3.407166 -1.152527,8.256287 -1.936401,14.24646c-0.783875,5.990173 -1.576477,13.135498 -2.213043,21.106873c-0.560822,7.02301 -0.983551,14.710083 -1.30014,22.766602l-8.852173,0c0.364166,-8.355103 1.048981,-16.361328 2.047058,-23.651855c1.116089,-8.152527 2.599213,-15.429321 4.204773,-21.438782c1.60556,-6.00946 3.327393,-10.754272 4.758057,-13.942139c1.430664,-3.187866 2.571838,-4.827637 3.153564,-4.6474z" id="path2964" fill-rule="evenodd" fill="url(#svg_6)"/>
   <path id="path2966" d="m308.333862,435.991577c0.026001,-1.96698 0.036011,-3.935974 0,-5.937988c-0.026978,-1.405029 -0.093994,-2.829041 -0.155975,-4.25c-0.376007,-8.723999 -1.413025,-17.108032 -3.187012,-24.781006c-1.773987,-7.673035 -4.269989,-14.642029 -7.312988,-20.718994c-2.778015,-5.640015 -6.001007,-10.512024 -9.25,-14.531006c-3.249023,-4.018982 -6.537018,-7.177979 -9.437012,-9.656006c-6.558014,-4.374023 -10.312988,-7.374023 -9.968994,-8.218994c0.363983,-0.833984 4.850983,0.596985 12.625,3.937988c3.569,2.085022 7.647003,5.077026 11.75,9.125c4.102997,4.046997 8.208984,9.179016 11.781006,15.312012c3.759979,6.536011 6.901978,14.11499 9.125,22.437988c2.222992,8.322021 3.540985,17.374023 3.905975,26.687012c0.060028,1.515991 0.082001,3.036987 0.094025,4.531006c0.019989,2.049011 -0.011017,4.055969 -0.062012,6.062988l-9.907013,0l0,0z" fill-rule="evenodd" fill="url(#svg_4)"/>
   <path id="path2968" d="m340.923492,435.991333c0.2117,-1.948792 0.447601,-3.900391 0.624969,-5.874695c1.051422,-11.704834 1.385193,-23.067261 1.083282,-33.789734c-0.349762,-12.552734 -1.586456,-24.245117 -3.249817,-34.664734c-1.663361,-10.419556 -3.737946,-19.545532 -5.666351,-27.123413c-1.928406,-7.577881 -3.6763,-13.611511 -4.749756,-17.832336c-1.073425,-4.220825 -1.478668,-6.637329 -0.791595,-6.957947c0.687073,-0.320618 2.394623,1.484619 4.749725,5.249695c2.355103,3.765076 5.375549,9.502136 8.457855,16.999023c3.082275,7.496948 6.197174,16.774536 8.749512,27.5401c2.552307,10.765625 4.512482,23.013306 5.291351,36.247986c0.661133,11.281738 0.514496,23.258301 -0.583282,35.539673c-0.14032,1.569519 -0.290375,3.113953 -0.458313,4.666382l-13.457581,0z" fill-rule="evenodd" fill="url(#svg_4)"/>
   <path id="path2970" d="m369.33429,435.991333c2.670319,-8.238586 5.430206,-16.085205 7.96875,-23.4375c2.735443,-7.922546 5.206909,-15.3125 7.21875,-22.09375c1.173401,-3.96228 2.199615,-7.703979 3.03125,-11.1875c0.831635,-3.483521 1.460968,-6.705261 1.9375,-9.65625c0.466492,-2.915588 0.770142,-5.564453 0.96875,-7.875c0.198608,-2.310547 0.283051,-4.275635 0.34375,-5.90625c0.060699,-1.630615 0.118958,-2.925049 0.21875,-3.8125c0.099792,-0.887451 0.25647,-1.375732 0.53125,-1.4375c0.27478,-0.061829 0.661102,0.311523 1.09375,1.125c0.432648,0.813477 0.921967,2.080505 1.375,3.75c0.453033,1.669495 0.851135,3.746399 1.125,6.21875c0.273865,2.472351 0.394409,5.318542 0.3125,8.46875c-0.078094,3.183777 -0.339966,6.688904 -0.84375,10.4375c-0.503784,3.748535 -1.232941,7.76239 -2.15625,11.9375c-1.574402,7.136963 -3.681824,14.854858 -6.15625,22.96875c-2.006653,6.580017 -4.275513,13.460205 -6.53125,20.5l-10.4375,0z" fill-rule="evenodd" fill="url(#svg_4)"/>
   <path id="path2972" d="m516.20813,435.991333c-0.057983,-1.47467 -0.13562,-2.931885 -0.1875,-4.424988c-0.005981,-0.147461 0.005005,-0.302307 0,-0.449951c-0.423035,-12.603027 -0.623718,-24.627563 -0.862488,-35.624756c-0.23877,-10.997192 -0.541077,-20.964478 -0.974976,-29.324768c-0.43396,-8.360291 -0.994751,-15.11908 -1.6875,-19.799866c-0.69281,-4.680786 -1.497009,-7.274902 -2.325012,-7.274902c-0.827942,0 -1.619568,2.57843 -2.362427,7.237427c-0.74292,4.658997 -1.447876,11.388184 -2.100037,19.724854c-0.6521,8.33667 -1.244934,18.292175 -1.612488,29.362244c-0.367493,11.070129 -0.501038,23.271362 -0.074951,36.112244c0.004944,0.150452 -0.005005,0.299683 0,0.450012c0.045166,1.352478 0.129089,2.673157 0.1875,4.012451l11.999878,0z" fill-rule="evenodd" fill="url(#svg_4)"/>
   <path id="path2974" d="m484.801819,435.991577c-0.252991,-6.309021 -0.790955,-12.362 -1.620972,-17.904968c-1.005005,-6.717041 -2.417999,-12.694031 -3.986969,-17.571045c-1.569031,-4.877014 -3.268982,-8.661011 -4.682007,-11.164978c-1.414001,-2.505005 -2.513977,-3.737 -3.036011,-3.525024c-0.521973,0.213013 -0.417969,1.854004 0.051025,4.605042c0.469971,2.751953 1.270996,6.621948 2.057983,11.447998c0.788025,4.825989 1.546021,10.60199 2.083984,17.08197c0.437012,5.262024 0.71405,11.01001 0.901001,17.031006l8.231964,0l0,0z" fill-rule="evenodd" fill="url(#svg_4)"/>
   <path id="path2978" d="m430.480743,334.665344c0.11322,-0.022583 0.265198,0.020386 0.374451,0.187256c0.109253,0.166809 0.160645,0.488037 0.187256,0.711426c0.056091,0.394958 0.061096,0.907532 0,1.497803c-0.120605,1.166809 -0.470642,2.734985 -0.973633,4.605774c-1.000732,3.718567 -2.688599,8.82843 -4.718079,15.05304c-4.00647,12.282959 -9.445984,29.154358 -13.667572,49.053467c-2.050079,9.673096 -3.763641,20.075439 -4.94278,30.929871l-12.094849,0c1.28299,-11.858887 3.443878,-23.157166 6.066132,-33.513611c2.594177,-10.25415 5.642212,-19.596802 8.762238,-27.859375c3.119965,-8.262512 6.300293,-15.437317 9.211548,-21.343872c2.960693,-6.008911 5.604187,-10.66571 7.638855,-13.929626c1.032043,-1.660217 1.879028,-2.921936 2.546265,-3.819458c0.341003,-0.463379 0.627563,-0.794556 0.861267,-1.048462c0.151733,-0.233582 0.331421,-0.266296 0.449341,-0.337036c0.11792,-0.070679 0.186462,-0.164551 0.299561,-0.187195z" fill-rule="evenodd" fill="url(#svg_4)"/>
   <path id="path2980" d="m452.458038,354.485229c0.635559,0.213989 0.414551,2.795837 -0.40625,7.28125c-0.820862,4.485413 -2.230591,10.896423 -3.875,18.8125c-1.644409,7.916077 -3.516724,17.317261 -4.9375,27.8125c-1.187317,8.770508 -2.055786,18.309814 -2.1875,28.3125l-9.90625,0c0.272705,-10.620605 1.480652,-20.653992 3.15625,-29.75c1.992249,-10.814941 4.601379,-20.341064 7.15625,-28.1875c2.554871,-7.846436 5.049377,-13.992798 7,-18.15625c1.950562,-4.163452 3.364441,-6.338989 4,-6.125z" fill-rule="evenodd" fill="url(#svg_4)"/>
   <path d="m308.333862,435.991577c0.026001,-1.96698 0.036011,-3.935974 0,-5.937988c-0.026978,-1.405029 -0.093994,-2.829041 -0.155975,-4.25c-0.376007,-8.723999 -1.413025,-17.108032 -3.187012,-24.781006c-1.773987,-7.673035 -4.269989,-14.642029 -7.312988,-20.718994c-2.778015,-5.640015 -6.001007,-10.512024 -9.25,-14.531006c-3.249023,-4.018982 -6.537018,-7.177979 -9.437012,-9.656006c-6.558014,-4.374023 -10.312988,-7.374023 -9.968994,-8.218994c0.363983,-0.833984 4.850983,0.596985 12.625,3.937988c3.569,2.085022 7.647003,5.077026 11.75,9.125c4.102997,4.046997 8.208984,9.179016 11.781006,15.312012c3.759979,6.536011 6.901978,14.11499 9.125,22.437988c2.222992,8.322021 3.540985,17.374023 3.905975,26.687012c0.060028,1.515991 0.082001,3.036987 0.094025,4.531006c0.019989,2.049011 -0.011017,4.055969 -0.062012,6.062988l-9.907013,0l0,0z" id="path2986" fill-rule="evenodd" fill="url(#svg_4)"/>
   <path d="m340.923492,435.991333c0.2117,-1.948792 0.447601,-3.900391 0.624969,-5.874695c1.051422,-11.704834 1.385193,-23.067261 1.083282,-33.789734c-0.349762,-12.552734 -1.586456,-24.245117 -3.249817,-34.664734c-1.663361,-10.419556 -3.737946,-19.545532 -5.666351,-27.123413c-1.928406,-7.577881 -3.6763,-13.611511 -4.749756,-17.832336c-1.073425,-4.220825 -1.478668,-6.637329 -0.791595,-6.957947c0.687073,-0.320618 2.394623,1.484619 4.749725,5.249695c2.355103,3.765076 5.375549,9.502136 8.457855,16.999023c3.082275,7.496948 6.197174,16.774536 8.749512,27.5401c2.552307,10.765625 4.512482,23.013306 5.291351,36.247986c0.661133,11.281738 0.514496,23.258301 -0.583282,35.539673c-0.14032,1.569519 -0.290375,3.113953 -0.458313,4.666382l-13.457581,0z" id="path2988" fill-rule="evenodd" fill="url(#svg_4)"/>
   <path d="m369.33429,435.991333c2.670319,-8.238586 5.430206,-16.085205 7.96875,-23.4375c2.735443,-7.922546 5.206909,-15.3125 7.21875,-22.09375c1.173401,-3.96228 2.199615,-7.703979 3.03125,-11.1875c0.831635,-3.483521 1.460968,-6.705261 1.9375,-9.65625c0.466492,-2.915588 0.770142,-5.564453 0.96875,-7.875c0.198608,-2.310547 0.283051,-4.275635 0.34375,-5.90625c0.060699,-1.630615 0.118958,-2.925049 0.21875,-3.8125c0.099792,-0.887451 0.25647,-1.375732 0.53125,-1.4375c0.27478,-0.061829 0.661102,0.311523 1.09375,1.125c0.432648,0.813477 0.921967,2.080505 1.375,3.75c0.453033,1.669495 0.851135,3.746399 1.125,6.21875c0.273865,2.472351 0.394409,5.318542 0.3125,8.46875c-0.078094,3.183777 -0.339966,6.688904 -0.84375,10.4375c-0.503784,3.748535 -1.232941,7.76239 -2.15625,11.9375c-1.574402,7.136963 -3.681824,14.854858 -6.15625,22.96875c-2.006653,6.580017 -4.275513,13.460205 -6.53125,20.5l-10.4375,0z" id="path2990" fill-rule="evenodd" fill="url(#svg_4)"/>
   <path d="m516.20813,435.991333c-0.057983,-1.47467 -0.13562,-2.931885 -0.1875,-4.424988c-0.005981,-0.147461 0.005005,-0.302307 0,-0.449951c-0.423035,-12.603027 -0.623718,-24.627563 -0.862488,-35.624756c-0.23877,-10.997192 -0.541077,-20.964478 -0.974976,-29.324768c-0.43396,-8.360291 -0.994751,-15.11908 -1.6875,-19.799866c-0.69281,-4.680786 -1.497009,-7.274902 -2.325012,-7.274902c-0.827942,0 -1.619568,2.57843 -2.362427,7.237427c-0.74292,4.658997 -1.447876,11.388184 -2.100037,19.724854c-0.6521,8.33667 -1.244934,18.292175 -1.612488,29.362244c-0.367493,11.070129 -0.501038,23.271362 -0.074951,36.112244c0.004944,0.150452 -0.005005,0.299683 0,0.450012c0.045166,1.352478 0.129089,2.673157 0.1875,4.012451l11.999878,0z" id="path2992" fill-rule="evenodd" fill="url(#svg_4)"/>
   <path d="m484.801819,435.991577c-0.252991,-6.309021 -0.790955,-12.362 -1.620972,-17.904968c-1.005005,-6.717041 -2.417999,-12.694031 -3.986969,-17.571045c-1.569031,-4.877014 -3.268982,-8.661011 -4.682007,-11.164978c-1.414001,-2.505005 -2.513977,-3.737 -3.036011,-3.525024c-0.521973,0.213013 -0.417969,1.854004 0.051025,4.605042c0.469971,2.751953 1.270996,6.621948 2.057983,11.447998c0.788025,4.825989 1.546021,10.60199 2.083984,17.08197c0.437012,5.262024 0.71405,11.01001 0.901001,17.031006l8.231964,0l0,0z" id="path2994" fill-rule="evenodd" fill="url(#svg_4)"/>
   <path d="m430.480743,334.665344c0.11322,-0.022583 0.265198,0.020386 0.374451,0.187256c0.109253,0.166809 0.160645,0.488037 0.187256,0.711426c0.056091,0.394958 0.061096,0.907532 0,1.497803c-0.120605,1.166809 -0.470642,2.734985 -0.973633,4.605774c-1.000732,3.718567 -2.688599,8.82843 -4.718079,15.05304c-4.00647,12.282959 -9.445984,29.154358 -13.667572,49.053467c-2.050079,9.673096 -3.763641,20.075439 -4.94278,30.929871l-12.094849,0c1.28299,-11.858887 3.443878,-23.157166 6.066132,-33.513611c2.594177,-10.25415 5.642212,-19.596802 8.762238,-27.859375c3.119965,-8.262512 6.300293,-15.437317 9.211548,-21.343872c2.960693,-6.008911 5.604187,-10.66571 7.638855,-13.929626c1.032043,-1.660217 1.879028,-2.921936 2.546265,-3.819458c0.341003,-0.463379 0.627563,-0.794556 0.861267,-1.048462c0.151733,-0.233582 0.331421,-0.266296 0.449341,-0.337036c0.11792,-0.070679 0.186462,-0.164551 0.299561,-0.187195z" id="path2998" fill-rule="evenodd" fill="url(#svg_4)"/>
   <path d="m452.458038,354.485229c0.635559,0.213989 0.414551,2.795837 -0.40625,7.28125c-0.820862,4.485413 -2.230591,10.896423 -3.875,18.8125c-1.644409,7.916077 -3.516724,17.317261 -4.9375,27.8125c-1.187317,8.770508 -2.055786,18.309814 -2.1875,28.3125l-9.90625,0c0.272705,-10.620605 1.480652,-20.653992 3.15625,-29.75c1.992249,-10.814941 4.601379,-20.341064 7.15625,-28.1875c2.554871,-7.846436 5.049377,-13.992798 7,-18.15625c1.950562,-4.163452 3.364441,-6.338989 4,-6.125z" id="path3000" fill-rule="evenodd" fill="url(#svg_4)"/>
   <path id="path3006" d="m316.394867,425.972595c0.026001,-2.02002 0.036011,-4.041992 0,-6.098022c-0.027985,-1.442993 -0.097992,-2.906006 -0.16098,-4.36499c-0.386017,-8.958984 -1.451019,-17.569031 -3.27301,-25.448975c-1.821991,-7.880005 -4.38501,-15.036011 -7.51001,-21.277039c-2.852997,-5.792969 -6.161987,-10.796021 -9.498993,-14.922974c-3.337006,-4.127014 -6.713013,-7.371033 -9.691986,-9.916992c-6.734009,-4.492004 -10.591003,-7.572021 -10.238007,-8.440002c0.373993,-0.856995 4.981995,0.612976 12.966003,4.044006c3.664978,2.141968 7.852997,5.213989 12.066986,9.370972c4.213013,4.156006 8.429993,9.427002 12.097992,15.724976c3.862,6.712036 7.088013,14.494995 9.371002,23.042053c2.28302,8.546997 3.637024,17.842957 4.012024,27.406982c0.060974,1.557983 0.083984,3.119019 0.095978,4.653992c0.02002,2.102966 -0.010986,4.164001 -0.063995,6.226013l-10.173004,0l0,0z" fill-rule="evenodd" fill="url(#svg_4)"/>
   <path id="path3008" d="m346.668518,425.972168c0.262787,-2.279053 0.555634,-4.561462 0.775787,-6.870422c1.305237,-13.688782 1.719574,-26.977112 1.344757,-39.517029c-0.434174,-14.68042 -1.96936,-28.354675 -4.03421,-40.540344c-2.06485,-12.185669 -4.640167,-22.858521 -7.034027,-31.720825c-2.39386,-8.862305 -4.563629,-15.91864 -5.896149,-20.854858c-1.33252,-4.936279 -1.835632,-7.762329 -0.982697,-8.137329c0.852905,-0.375 2.972626,1.736267 5.896149,6.139526c2.923553,4.403259 6.673035,11.112732 10.499329,19.880371c3.826233,8.767578 7.692963,19.617737 10.861328,32.208069c3.168365,12.590332 5.601654,26.914001 6.568542,42.391907c0.820709,13.194031 0.638702,27.200562 -0.724091,41.563599c-0.174164,1.83551 -0.360443,3.641785 -0.568939,5.457336l-16.70578,0z" fill-rule="evenodd" fill="url(#svg_4)"/>
   <path id="path3010" d="m379.038971,425.972168c2.74231,-8.460693 5.576599,-16.51886 8.183563,-24.069275c2.809204,-8.136169 5.34729,-15.725281 7.41333,-22.689331c1.205048,-4.069092 2.258942,-7.911682 3.112976,-11.489075c0.854065,-3.577454 1.500336,-6.886047 1.989746,-9.916565c0.479065,-2.994202 0.790924,-5.714478 0.994843,-8.08728c0.203949,-2.372864 0.29068,-4.39093 0.353027,-6.065491c0.062286,-1.674561 0.122162,-3.003906 0.22464,-3.915283c0.102478,-0.911377 0.263367,-1.412781 0.545593,-1.476257c0.282166,-0.063477 0.678925,0.319946 1.12323,1.155334c0.444275,0.835449 0.946808,2.136597 1.412048,3.851074c0.465271,1.714539 0.874084,3.847412 1.155334,6.386414c0.281219,2.539001 0.405029,5.461914 0.320923,8.697021c-0.0802,3.269592 -0.349152,6.869263 -0.866486,10.718872c-0.517365,3.849609 -1.266174,7.97168 -2.214386,12.259338c-1.616852,7.329285 -3.781097,15.255249 -6.322205,23.587891c-2.06073,6.757385 -4.390778,13.823059 -6.707306,21.052612l-10.718872,0z" fill-rule="evenodd" fill="url(#svg_4)"/>
   <path id="path3012" d="m505.325745,425.972168c-0.05957,-1.514404 -0.139282,-3.010925 -0.192566,-4.54425c-0.005981,-0.151489 0.005005,-0.310486 0,-0.462097c-0.434448,-12.94281 -0.640503,-25.291443 -0.885742,-36.585083c-0.245239,-11.29364 -0.555664,-21.529602 -1.001282,-30.115295c-0.445618,-8.585693 -1.021484,-15.526611 -1.732971,-20.333557c-0.711426,-4.807007 -1.537354,-7.471069 -2.387634,-7.471069c-0.850342,0 -1.663269,2.647949 -2.426147,7.432556c-0.762939,4.784546 -1.486938,11.695129 -2.156616,20.256531c-0.669678,8.561401 -1.278503,18.785278 -1.655945,30.153809c-0.377441,11.36853 -0.514587,23.898682 -0.077026,37.085693c0.005005,0.15448 -0.005005,0.3078 0,0.462158c0.046387,1.388977 0.132629,2.745178 0.192566,4.120605l12.323364,0z" fill-rule="evenodd" fill="url(#svg_4)"/>
   <path id="path3014" d="m473.072845,425.972595c-0.259949,-6.479004 -0.811951,-12.695007 -1.66394,-18.388c-1.03302,-6.89801 -2.484009,-13.036011 -4.095032,-18.045044c-1.612,-5.007996 -3.356995,-8.893982 -4.809021,-11.465942c-1.450989,-2.572021 -2.58197,-3.838013 -3.117004,-3.619019c-0.53595,0.218018 -0.428955,1.903015 0.05304,4.729004c0.481018,2.825989 1.304016,6.800964 2.112976,11.755981c0.809021,4.955994 1.587036,10.888 2.140015,17.54303c0.448975,5.402954 0.732971,11.306946 0.924988,17.48999l8.453979,0l0,0z" fill-rule="evenodd" fill="url(#svg_4)"/>
   <path id="path3020" d="m439.857147,342.26886c0.65271,0.219727 0.425781,2.871216 -0.417175,7.477539c-0.843018,4.606323 -2.29071,11.190186 -3.979492,19.319641c-1.688782,8.129456 -3.611511,17.784058 -5.070618,28.562195c-1.219299,9.006958 -2.111145,18.803406 -2.24646,29.075745l-10.173279,0c0.28009,-10.906921 1.520569,-21.210754 3.241333,-30.551941c2.045959,-11.106506 4.725464,-20.889465 7.349182,-28.947388c2.623718,-8.057922 5.185486,-14.369995 7.18866,-18.645691c2.003174,-4.275635 3.455139,-6.509827 4.107849,-6.2901z" fill-rule="evenodd" fill="url(#svg_4)"/>
   <path d="m336.480865,429.073608c0.02301,-1.742004 0.031006,-3.484009 0,-5.256042c-0.023987,-1.244995 -0.083984,-2.505005 -0.138977,-3.763c-0.333008,-7.721985 -1.251007,-15.143982 -2.821014,-21.935974c-1.570984,-6.79303 -3.779999,-12.960999 -6.472992,-18.341003c-2.459015,-4.992981 -5.312012,-9.304993 -8.188995,-12.863037c-2.876007,-3.557983 -5.786011,-6.353943 -8.354004,-8.547974c-5.804016,-3.872009 -9.128998,-6.526978 -8.824005,-7.275024c0.321991,-0.738953 4.294006,0.528015 11.175995,3.485046c3.158997,1.846008 6.769012,4.494995 10.401001,8.078003c3.631989,3.582947 7.266998,8.125977 10.429016,13.554993c3.327972,5.784973 6.109985,12.493958 8.076996,19.862c1.967987,7.367004 3.134979,15.380005 3.457977,23.623962c0.053009,1.342041 0.072998,2.688049 0.083008,4.011047c0.016998,1.812988 -0.01001,3.589966 -0.054993,5.367004l-8.769012,0l0,0z" id="path3026" fill-rule="evenodd" fill="url(#svg_4)"/>
   <path d="m366.329071,429.073181c0.187408,-1.725098 0.39624,-3.452698 0.553223,-5.200378c0.930756,-10.361267 1.226227,-20.419495 0.958954,-29.911194c-0.309631,-11.111877 -1.404358,-21.462158 -2.876801,-30.68573c-1.472443,-9.223572 -3.308868,-17.302063 -5.015961,-24.010071c-1.707031,-6.708069 -3.254303,-12.049133 -4.204498,-15.785522c-0.950226,-3.736328 -1.30899,-5.875427 -0.700775,-6.159241c0.608215,-0.283813 2.119781,1.314209 4.204529,4.647095c2.084778,3.332886 4.758514,8.411438 7.48703,15.047852c2.728485,6.636353 5.48584,14.84906 7.745209,24.378906c2.259338,9.529846 3.994507,20.371704 4.68399,32.08728c0.585236,9.986755 0.455444,20.588562 -0.516357,31.460205c-0.124176,1.389404 -0.257019,2.756531 -0.405701,4.130798l-11.912842,0z" id="path3028" fill-rule="evenodd" fill="url(#svg_4)"/>
   <path d="m390.47876,429.073181c2.3638,-7.292969 4.806885,-14.238892 7.054047,-20.747253c2.421478,-7.013184 4.609253,-13.55481 6.390137,-19.557739c1.038727,-3.507446 1.947174,-6.819702 2.683319,-9.90332c0.736176,-3.083679 1.293274,-5.935608 1.715118,-8.547852c0.412933,-2.580933 0.681763,-4.925781 0.857544,-6.971069c0.175812,-2.045349 0.250549,-3.784912 0.304291,-5.228333c0.053711,-1.44342 0.105286,-2.589294 0.193634,-3.374878c0.088318,-0.785583 0.227051,-1.217773 0.470276,-1.272522c0.243256,-0.054688 0.585236,0.275757 0.968201,0.995911c0.382996,0.720093 0.816132,1.841675 1.217194,3.319519c0.401031,1.477905 0.753448,3.316406 0.99588,5.504944c0.242371,2.188538 0.349121,4.708069 0.276611,7.496643c-0.069092,2.818359 -0.300964,5.921204 -0.746918,9.239502c-0.445953,3.318237 -1.0914,6.871399 -1.908752,10.567261c-1.393677,6.317688 -3.259216,13.149719 -5.449585,20.332275c-1.776306,5.824707 -3.78476,11.915161 -5.781586,18.146912l-9.23941,0z" id="path3030" fill-rule="evenodd" fill="url(#svg_4)"/>
   <path d="m500.078308,429.073181c-0.051392,-1.305359 -0.120056,-2.595398 -0.165955,-3.917053c-0.005005,-0.130554 0.003967,-0.267639 0,-0.398315c-0.374512,-11.156433 -0.552124,-21.80072 -0.763489,-31.535583c-0.211426,-9.734863 -0.479004,-18.558105 -0.863098,-25.95874c-0.384094,-7.400696 -0.880554,-13.383667 -1.493774,-17.527161c-0.613281,-4.143494 -1.325195,-6.43988 -2.058105,-6.43988c-0.732971,0 -1.433716,2.282471 -2.091309,6.406677c-0.657654,4.124268 -1.281677,10.080994 -1.858948,17.460754c-0.577271,7.379761 -1.102051,16.192505 -1.427429,25.991943c-0.325317,9.799438 -0.443542,20.60022 -0.066406,31.967102c0.004028,0.133179 -0.003967,0.26532 0,0.398376c0.040039,1.197266 0.114319,2.366272 0.166016,3.55188l10.622498,0z" id="path3032" fill-rule="evenodd" fill="url(#svg_4)"/>
   <path d="m472.276886,429.073608c-0.223999,-5.585022 -0.700012,-10.943054 -1.434021,-15.850037c-0.890015,-5.945984 -2.140991,-11.237 -3.529968,-15.554016c-1.389038,-4.317993 -2.894043,-7.666992 -4.14502,-9.883972c-1.250977,-2.21698 -2.224976,-3.307983 -2.687012,-3.119995c-0.461975,0.188965 -0.369995,1.640991 0.044983,4.076965c0.416016,2.434998 1.125,5.862 1.822021,10.134033c0.697998,4.271973 1.367981,9.38501 1.845032,15.120972c0.386963,4.657043 0.630981,9.746033 0.796997,15.07605l7.286987,0l0,0z" id="path3034" fill-rule="evenodd" fill="url(#svg_4)"/>
   <path d="m505.038818,339.377808c-0.10022,-0.02002 -0.234741,0.018005 -0.331482,0.165771c-0.09668,0.147644 -0.142212,0.432007 -0.16571,0.629761c-0.049622,0.349609 -0.054016,0.803345 0,1.325867c0.106689,1.032898 0.416565,2.421082 0.861816,4.077148c0.885864,3.291687 2.380005,7.815002 4.176514,13.325134c3.546631,10.873047 8.361755,25.807861 12.098755,43.422913c1.814758,8.562744 3.331604,17.771057 4.375427,27.379578l10.706543,0c-1.135681,-10.497681 -3.048584,-20.499084 -5.369812,-29.666748c-2.296448,-9.077148 -4.994568,-17.347412 -7.75647,-24.66156c-2.761841,-7.314087 -5.577148,-13.665344 -8.154236,-18.893921c-2.62085,-5.319214 -4.960938,-9.441467 -6.762024,-12.33075c-0.913574,-1.469666 -1.66333,-2.586487 -2.254028,-3.381042c-0.301819,-0.410156 -0.555481,-0.703369 -0.762329,-0.928101c-0.134338,-0.206726 -0.293396,-0.235718 -0.397827,-0.298279c-0.10437,-0.062622 -0.165039,-0.145691 -0.265137,-0.165771z" id="path3038" fill-rule="evenodd" fill="url(#svg_4)"/>
   <path d="m443.645721,356.922668c0.562622,0.189392 0.367004,2.474915 -0.359619,6.445496c-0.726624,3.97052 -1.974487,9.645691 -3.430237,16.653076c-1.455627,7.007446 -3.113037,15.329529 -4.370728,24.620056c-1.051025,7.763794 -1.819763,16.208191 -1.936401,25.062683l-8.769165,0c0.241394,-9.40155 1.310669,-18.283203 2.793945,-26.335144c1.763611,-9.573547 4.073242,-18.006287 6.334839,-24.952026c2.261597,-6.94574 4.469849,-12.386658 6.196533,-16.072205c1.726685,-3.685486 2.97821,-5.611328 3.540833,-5.421936z" id="path3040" fill-rule="evenodd" fill="url(#svg_4)"/>
   <path id="path3046" d="m449.693329,429.073181c0.187378,-1.725098 0.39624,-3.452698 0.553223,-5.200378c0.930725,-10.361267 1.226196,-20.419495 0.958923,-29.911194c-0.30957,-11.111877 -1.404358,-21.462158 -2.87677,-30.68573c-1.472473,-9.223572 -3.308899,-17.302063 -5.01593,-24.010071c-1.707092,-6.708069 -3.254333,-12.049133 -4.204529,-15.785522c-0.950256,-3.736328 -1.309021,-5.875427 -0.700806,-6.159241c0.608215,-0.283813 2.119812,1.314209 4.204529,4.647095c2.084778,3.332886 4.758545,8.411438 7.487061,15.047852c2.728516,6.636353 5.48584,14.84906 7.745178,24.378906c2.259338,9.529846 3.994507,20.371704 4.684021,32.08728c0.585266,9.986755 0.455444,20.588562 -0.516357,31.460205c-0.124207,1.389404 -0.257019,2.756531 -0.405701,4.130798l-11.912842,0z" fill-rule="evenodd" fill="url(#svg_4)"/>
   <path id="path3048" d="m485.15387,338.748596c-0.274048,-0.004028 -0.718018,0.338989 -1.300049,1.050964c-0.664001,0.812988 -1.508972,2.106018 -2.43396,3.845032c-0.924957,1.739014 -1.924957,3.929016 -2.876984,6.583984c-0.952026,2.653992 -1.848999,5.780029 -2.544983,9.294006c-0.637024,3.223022 -1.092041,6.771973 -1.328003,10.594971c-0.236023,3.824036 -0.23999,7.921997 0.027954,12.200012c0.400024,6.315002 1.321045,13.030029 2.766052,19.971985c1.445007,6.943054 3.406982,14.108032 5.642975,21.356018c0.455994,1.478027 0.917969,2.923035 1.382996,4.371033c0.182983,0.570007 0.369995,1.121948 0.553955,1.686951l9.239014,0c-0.464966,-1.451965 -0.919983,-2.869995 -1.382996,-4.342957c-0.447021,-1.432007 -0.882996,-2.864014 -1.328003,-4.315002c-2.184021,-7.11499 -4.154968,-14.038025 -5.726013,-20.637024c-1.570984,-6.597961 -2.732971,-12.875 -3.429993,-18.78302c-0.473999,-3.988953 -0.755005,-7.809998 -0.830017,-11.368958c-0.075989,-3.559998 0.05304,-6.86499 0.304016,-9.903992c0.544006,-6.612 1.723022,-11.906006 2.572998,-15.574036c0.424988,-1.833984 0.751038,-3.273987 0.913025,-4.287964c0.161011,-1.013 0.146973,-1.591003 -0.111023,-1.715027c-0.031982,-0.015015 -0.070984,-0.026978 -0.110962,-0.026978l0,0z" fill-rule="evenodd" fill="url(#svg_4)"/>
   <path stroke="#488e01" d="m13.33987,243.080566c0,0.018005 0.01499,0.042023 0.014009,0.059998c-11.532009,5.958984 -21.83801,12.770996 -23.386009,16.612c3.908989,1.736023 15.939999,0.484985 28.396997,-2.182007c10.117001,19.96405 32.871002,50.710999 43.485001,53.40802c4.667007,0.944031 9.347,1.906006 13.762009,3.742004l0.30899,0.088013l0.234009,0.041992c0.804993,-1.697998 -1.555008,-13.505981 -0.848999,-16.130005c-2.114021,-12.861023 -50.247009,-55.60199 -61.966007,-55.640991l0,0.000977z" id="path3216" fill="url(#svg_7)"/>
   <path id="path3227" d="m66.022133,297.343079c-1.830116,0.448364 -3.556465,1.07605 -5.15625,1.84375c8.370125,9.595032 16.280098,19.825806 22.6875,30.8125c2.259026,-0.903442 4.287346,-2.063843 6.03125,-3.46875c-6.66819,-10.547974 -14.751152,-20.266235 -23.5625,-29.1875z" fill="url(#svg_7)"/>
   <path stroke="#488e01" d="m108.099182,255.343079c1.493866,0.366028 2.903015,0.878357 4.208878,1.505005c-6.832268,7.832153 -13.288933,16.183167 -18.519073,25.151245c-1.843979,-0.737488 -3.499619,-1.684631 -4.923103,-2.831421c5.442986,-8.609985 12.040855,-16.542664 19.233299,-23.824829z" id="path3232" fill="url(#svg_7)"/>
   <path id="path3056" d="m465.405243,362.023804c-0.581726,0.180237 -0.536438,2.153137 -0.138306,5.560242c0.398132,3.407166 1.152527,8.256287 1.936401,14.24646c0.783875,5.990173 1.576477,13.135498 2.213013,21.106873c0.560852,7.02301 0.983582,14.710083 1.300171,22.766602l8.852173,0c-0.364136,-8.355103 -1.049011,-16.361328 -2.047058,-23.651855c-1.116089,-8.152527 -2.599182,-15.429321 -4.204773,-21.438782c-1.605591,-6.00946 -3.327393,-10.754272 -4.758057,-13.942139c-1.430664,-3.187866 -2.571838,-4.827637 -3.153564,-4.6474z" fill-rule="evenodd" fill="url(#svg_4)"/>
   <path stroke="#488e01" id="path3223" d="m102.664978,269.680603c2.694092,-1.706055 5.671692,-2.871033 8.632385,-4.019043c8.779816,-3.914001 25.899506,-42.141968 24.212509,-50.108978c-7.698807,1.350983 -34.508415,34.881989 -34.442902,43.574982c0.760788,1.64502 0.5401,9.673035 1.261398,10.697998l0.150391,-0.052002l0.186218,-0.092957l0,0l0,0z" fill="url(#svg_7)"/>
   <path stroke="#488e01" id="path3196" d="m55.351196,431.136353c4.179443,0.82959 11.008942,7.57373 11.024612,-0.984619c24.793755,-71.93103 35.380394,-149.214233 26.990898,-225.030609c-3.578529,-50.442017 3.748886,-103.754662 33.366951,-146.026394c11.497971,-17.257168 25.217728,-32.88471 39.25705,-48.0947c-32.513794,32.456642 -61.915504,70.931671 -71.413467,116.821503c-9.081833,37.944855 -6.039612,77.179657 -4.250214,115.72702c0.433716,63.911163 -12.22522,127.962616 -34.97583,187.587799z" fill-rule="evenodd" fill="url(#svg_7)"/>
   <path stroke="#488e01" id="path3247" d="m50.275208,82.742569c-8.431019,21.896881 -13.934219,44.022903 -12.653297,66.885117c0.771221,35.681763 13.809174,68.98288 25.427002,102.051102c16.770767,55.55809 20.685059,115.014206 13.55658,173.531387c4.322884,-0.483795 12.755074,3.431763 10.581863,-4.029297c5.990997,-69.828583 -3.336655,-140.226807 -30.976982,-203.860672c-16.133007,-42.166504 -22.616898,-89.783745 -5.459457,-134.478996c-0.37925,-0.196701 -0.108452,0.129623 -0.475708,-0.09864z" fill-rule="evenodd" fill="url(#svg_7)"/>
   <path stroke="#488e01" id="path3338" d="m89.150131,120.410034c-0.895622,2.572571 -2.44574,5.133102 -5.636284,8.820358c-6.624504,4.030716 -17.397453,7.801056 -16.437531,15.895584c-0.072533,0.112976 -0.104408,0.187836 -0.14859,0.272079c-1.340363,1.621078 -2.642151,3.279083 -3.876244,4.980377c0.40107,0.506897 0.907326,0.962082 1.490601,1.328003c1.087585,-1.631546 2.247688,-3.229019 3.428551,-4.807434c9.852661,-0.506058 12.689796,-10.107513 16.740318,-16.420624c3.662758,-3.336365 6.212822,-4.979034 8.786186,-5.943863c-2.012169,0.550583 -4.556366,1.667725 -7.245995,3.123871c1.374428,-2.697678 2.400444,-5.240662 2.89901,-7.24826l-0.000023,-0.000092z" fill="url(#svg_7)"/>
   <path stroke="#488e01" id="path3346" d="m86.091507,202.763824c0.025841,0.250702 0.037788,0.479736 0.060776,0.723648c-10.662567,10.46553 -13.032394,31.684692 -13.982285,50.221558c-0.906975,1.47377 0.004738,6.058273 0.989914,8.737015c-0.795815,2.20929 -1.5653,4.437561 -2.262779,6.699036c0.79554,0.717651 1.720695,1.309601 2.716209,1.720764c0.691139,-2.576019 1.459076,-5.105957 2.262253,-7.640533c1.482269,-0.585663 2.157402,-2.44693 4.212341,-5.28125c6.080322,-17.688705 12.321465,-39.199753 6.262474,-54.484238c0.06353,-0.121582 0.118736,-0.229279 0.183868,-0.353226c-0.081131,0.076233 -0.157288,0.155762 -0.237465,0.233627c-0.075264,-0.187592 -0.126259,-0.390869 -0.205307,-0.576401l0,0zm0.074959,1.049255c0.754913,8.409485 -0.411942,13.03035 -5.337173,28.043045c0.954399,-15.999222 1.536934,-20.681107 5.337173,-28.043045z" fill="url(#svg_7)"/>
   <path stroke="#488e01" d="m62.038574,104.052727c-0.596939,2.83709 -1.880844,5.741257 -4.733742,10.040176c-6.40403,5.081779 -17.187962,10.393196 -15.108833,18.859566c-0.060997,0.128677 -0.084473,0.211929 -0.119549,0.306671c-1.188969,1.88237 -2.332573,3.799225 -3.399544,5.753738c0.487366,0.488602 1.077999,0.909546 1.737492,1.226456c0.922775,-1.862656 1.925983,-3.698013 2.95351,-5.515732c10.252865,-1.737808 11.951031,-12.265053 15.356365,-19.4533c3.39399,-3.984375 5.84713,-6.037186 8.414574,-7.373947c-2.034668,0.829033 -4.551254,2.323921 -7.175377,4.195923c1.081856,-3.028214 1.81926,-5.849884 2.075104,-8.039551z" id="path3364" fill="url(#svg_7)"/>
   <path stroke="#488e01" id="path3366" d="m23.699783,83.94149c1.981167,2.116692 3.623093,4.834518 5.507168,9.63765c0.487762,8.160774 -1.349342,20.040573 6.77776,23.19529c0.070377,0.12381 0.125126,0.190811 0.182568,0.273888c0.859566,2.05381 1.773357,4.090279 2.761967,6.085556c0.679794,-0.118813 1.363464,-0.361046 2.001392,-0.719383c-0.996124,-1.824463 -1.923744,-3.699165 -2.822941,-5.583672c4.459316,-9.394447 -3.188454,-16.82534 -7.121998,-23.738701c-1.31599,-5.065804 -1.589813,-8.252823 -1.211563,-11.122581c-0.488403,2.142082 -0.707947,5.060944 -0.680347,8.284248c-1.859447,-2.62352 -3.747395,-4.84642 -5.394005,-6.312294z" fill="url(#svg_7)"/>
   <path stroke="#488e01" d="m20.265995,149.171768c2.75592,1.862534 5.28606,4.485214 8.61879,9.377945c2.626503,9.006668 3.600163,22.766373 13.497364,24.223572c0.110088,0.120178 0.188477,0.18103 0.274113,0.259781c1.485222,2.078278 3.026966,4.123764 4.641727,6.103973c0.730415,-0.305893 1.433388,-0.751465 2.055946,-1.314453c-1.579712,-1.787491 -3.095749,-3.648956 -4.582256,-5.527649c2.593838,-11.647385 -7.857445,-18.011383 -14.020977,-24.742783c-2.764072,-5.332199 -3.882767,-8.828537 -4.19199,-12.135498c0.000313,2.520782 0.498829,5.842728 1.351322,9.441971c-2.749565,-2.461029 -5.428261,-4.466354 -7.644039,-5.686859l0,0z" id="path3368" fill="url(#svg_7)"/>
   <path stroke="#488e01" id="path3370" d="m87.886536,161.42485c-1.437782,2.295761 -3.482338,4.389404 -7.319954,7.123566c-7.117462,2.074921 -18.039207,2.681595 -19.043022,11.006912c-0.094009,0.091446 -0.141434,0.155884 -0.202301,0.227112c-1.628906,1.220566 -3.230843,2.488495 -4.779587,3.819824c0.254906,0.621017 0.619843,1.221085 1.07756,1.754745c1.395905,-1.304581 2.851349,-2.554382 4.321754,-3.778839c9.298721,2.369507 14.193924,-6.345901 19.448303,-11.440277c4.195122,-2.248383 6.95649,-3.137054 9.580391,-3.345871c-2.003983,-0.039764 -4.636208,0.329697 -7.483994,0.992126c1.913414,-2.280029 3.465797,-4.508438 4.400848,-6.359299l0,0l0,0z" fill="url(#svg_7)"/>
   <path stroke="#488e01" id="path3372" d="m57.108536,86.100914c-3.914719,3.376884 -7.782822,6.848228 -11.588081,10.375175c0.143608,0.082153 0.304573,0.157158 0.454399,0.234222c3.668518,-3.576561 7.389778,-7.103729 11.133682,-10.609398z" fill="url(#svg_7)"/>
   <path stroke="#488e01" d="m24.960102,200.725922c0.074097,0.22319 0.151394,0.4216 0.22543,0.638138c14.51593,3.979568 25.181953,20.80629 33.408134,36.015091c1.464622,0.831009 2.381104,5.113892 2.4757,7.822418c1.646049,1.503082 3.273567,3.032532 4.844124,4.62352c-0.492973,0.967224 -1.161537,1.887772 -1.970154,2.687439c-1.688171,-1.858582 -3.433197,-3.644226 -5.214462,-5.41832c-1.67588,0.181213 -3.066551,-1.082321 -6.185608,-2.539001c-12.893929,-12.159393 -27.448624,-27.470154 -27.561882,-43.123596c-0.10931,-0.073715 -0.206142,-0.140594 -0.318344,-0.214401c0.108978,0.0271 0.214863,0.059875 0.323227,0.088135c-0.000008,-0.191589 -0.030811,-0.387466 -0.026165,-0.579422l0,0zm0.33939,0.91922c2.57626,7.439316 5.533104,10.807846 16.246605,21.23407c-7.230629,-13.064941 -9.642063,-16.750809 -16.246605,-21.23407z" id="path3401" fill="url(#svg_7)"/>
   <path stroke="#488e01" id="path3202" d="m172.153183,57.470669c-31.517471,26.593945 -60.852585,58.991642 -73.417191,100.10358c-4.176025,12.337067 -6.962036,24.985565 -8.906281,37.795959c1.084015,0.59668 2.179779,1.177094 3.291496,1.72113c4.914505,-36.191925 16.933289,-71.477081 40.162773,-99.354622c11.678635,-14.69735 25.149857,-27.688194 38.869202,-40.266048z" fill-rule="evenodd" fill="url(#svg_7)"/>
   <rect transform="matrix(0.805053, 0.593202, -0.593202, 0.805053, 0, 0)" ry="7.25" y="-74.374878" x="131.010854" height="63" width="14.5" id="rect3207" fill="#7f3f00"/>
   <rect id="rect3209" width="12.063398" height="52.413387" x="156.831692" y="-61.767675" ry="6.031699" transform="matrix(0.729278, 0.684217, -0.684217, 0.729278, 0, 0)" fill="#7f3f00"/>
   <rect id="rect4094" width="638.82202" height="13.010852" x="-2.8694" y="423.692199" fill="#2d5603"/>
  </g>
 </g>
</svg>